<?xml version="1.0" encoding="UTF-8"?>
<svg version="1.1" xmlns="http://www.w3.org/2000/svg" width="500" height="500">
<path d="M0 0 C165 0 330 0 500 0 C500 165 500 330 500 500 C335 500 170 500 0 500 C0 335 0 170 0 0 Z " fill="#FDFEFE" transform="translate(0,0)"/>
<path d="M0 0 C3.03294566 6.36814364 5.94360685 12.69048042 8.375 19.3125 C10.55038675 25.12761151 13.18691886 30.59777199 16.05810547 36.09301758 C17.85040782 39.55535877 19.43917967 43.01845382 20.85546875 46.65234375 C23.82207477 54.23946581 27.42257902 61.54591557 30.9296875 68.89453125 C31.45304688 70.00957031 31.97640625 71.12460938 32.515625 72.2734375 C32.99290039 73.27810059 33.47017578 74.28276367 33.96191406 75.31787109 C35 78 35 78 35 82 C34.40574219 82.27972656 33.81148437 82.55945313 33.19921875 82.84765625 C21.34637636 88.58052403 11.82022371 95.51203861 2.42480469 104.63525391 C1.25121631 105.759373 0.04034119 106.84443096 -1.1796875 107.91796875 C-20.1337246 125.10243807 -31.50895085 154.16934379 -33.22314453 179.26708984 C-34.45520784 215.60495693 -24.48263957 245.77299375 0 273 C7.6859186 280.8722439 15.53627458 287.35898969 25 293 C25.69738281 293.42539062 26.39476562 293.85078125 27.11328125 294.2890625 C30.00645676 296.01133828 32.64888964 297.46382234 36 298 C36 298.66 36 299.32 36 300 C37.65 300 39.3 300 41 300 C41 300.66 41 301.32 41 302 C41.804375 302.103125 42.60875 302.20625 43.4375 302.3125 C47.78574891 303.15163576 51.82866326 304.53804579 56 306 C56.99 306.33 57.98 306.66 59 307 C57.49133286 316.45671236 55.71241212 325.85319911 53.875 335.25 C53.59490492 336.68877344 53.31495613 338.12757537 53.03515625 339.56640625 C52.35845156 343.04459981 51.67978687 346.52240734 51 350 C51.66 350 52.32 350 53 350 C53.06058594 349.30132812 53.12117187 348.60265625 53.18359375 347.8828125 C53.26738281 346.97273438 53.35117188 346.06265625 53.4375 345.125 C53.55931641 343.76761719 53.55931641 343.76761719 53.68359375 342.3828125 C54 340 54 340 55 338 C56.08796875 338.13277344 57.1759375 338.26554687 58.296875 338.40234375 C59.78123633 338.5808429 61.26561213 338.75922173 62.75 338.9375 C63.46027344 339.02451172 64.17054688 339.11152344 64.90234375 339.20117188 C71.25577194 339.96020976 77.62166459 340.49691049 84 341 C84 360.33333333 84 379.66666667 84 399 C73.56784541 399.23550147 63.54889 398.61858182 53.1875 397.25 C51.84706556 397.09063742 50.50657068 396.93178232 49.16601562 396.7734375 C42.37645065 395.8973646 36.38989079 394.71634338 30.12573242 391.93212891 C27.18535398 390.64277955 24.16674024 389.86347519 21.0625 389.0625 C8.20141112 385.47434063 8.20141112 385.47434063 3 382 C2.20703125 379.84375 2.20703125 379.84375 2 378 C1.34 378 0.68 378 0 378 C0 378.66 0 379.32 0 380 C-3.92389479 379.45501461 -5.89584594 378.37376487 -9 376 C-10.53720703 375.35804688 -10.53720703 375.35804688 -12.10546875 374.703125 C-26.25652256 368.76231788 -38.45495564 358.9037513 -50 349 C-51.18142578 348.01386719 -51.18142578 348.01386719 -52.38671875 347.0078125 C-76.79243536 326.3149331 -93.82000331 299.80982813 -107 271 C-107.35642578 270.24251465 -107.71285156 269.4850293 -108.08007812 268.70458984 C-110.57764273 263.29833401 -112.40675846 257.85904378 -114 252.125 C-114.25491211 251.21516357 -114.50982422 250.30532715 -114.77246094 249.36791992 C-117.25888909 240.32287122 -119.38711512 231.24183035 -121 222 C-121.11859375 221.32066406 -121.2371875 220.64132812 -121.359375 219.94140625 C-125.00930061 197.65078913 -124.48680393 173.0983926 -120 151 C-119.83371094 150.15501953 -119.66742188 149.31003906 -119.49609375 148.43945312 C-115.62896885 129.29002354 -109.19184456 110.98297448 -99.94384766 93.77001953 C-99.03553797 92.06664519 -98.16344107 90.34411104 -97.29296875 88.62109375 C-92.93948785 80.14862858 -87.76548778 72.55127594 -82 65 C-81.51789063 64.36690918 -81.03578125 63.73381836 -80.5390625 63.08154297 C-68.53551118 47.47459396 -54.96870505 33.55733296 -39 22 C-38.43651855 21.59168945 -37.87303711 21.18337891 -37.29248047 20.76269531 C-8.40201018 0 -8.40201018 0 0 0 Z " fill="#014F9D" transform="translate(192,60)"/>
<path d="M0 0 C0.66 0 1.32 0 2 0 C2 0.66 2 1.32 2 2 C3.65 2 5.3 2 7 2 C7 2.66 7 3.32 7 4 C7.804375 4.103125 8.60875 4.20625 9.4375 4.3125 C13.78574891 5.15163576 17.82866326 6.53804579 22 8 C22.99 8.33 23.98 8.66 25 9 C23.49133286 18.45671236 21.71241212 27.85319911 19.875 37.25 C19.59490492 38.68877344 19.31495613 40.12757537 19.03515625 41.56640625 C18.35845156 45.04459981 17.67978687 48.52240734 17 52 C17.66 52 18.32 52 19 52 C19.09087891 50.95199219 19.09087891 50.95199219 19.18359375 49.8828125 C19.26738281 48.97273438 19.35117188 48.06265625 19.4375 47.125 C19.51871094 46.22007812 19.59992188 45.31515625 19.68359375 44.3828125 C20 42 20 42 21 40 C22.08796875 40.13277344 23.1759375 40.26554687 24.296875 40.40234375 C25.78123633 40.5808429 27.26561213 40.75922173 28.75 40.9375 C29.46027344 41.02451172 30.17054688 41.11152344 30.90234375 41.20117188 C37.25577194 41.96020976 43.62166459 42.49691049 50 43 C50 62.33333333 50 81.66666667 50 101 C39.56784541 101.23550147 29.54889 100.61858182 19.1875 99.25 C17.84706556 99.09063742 16.50657068 98.93178232 15.16601562 98.7734375 C8.37645065 97.8973646 2.38989079 96.71634338 -3.87426758 93.93212891 C-6.81464602 92.64277955 -9.83325976 91.86347519 -12.9375 91.0625 C-29.11745935 86.553331 -29.11745935 86.553331 -32.359375 82.15625 C-33.88315841 77.02741804 -30.95854919 72.25560932 -28.875 67.625 C-28.56369141 66.92310547 -28.25238281 66.22121094 -27.93164062 65.49804688 C-25.56367802 60.18561568 -23.10786359 54.91580683 -20.63085938 49.65356445 C-15.88862139 39.5471339 -11.5086307 29.28558469 -7.265625 18.9609375 C-5.35228946 14.48467719 -3.24736537 10.10094818 -1.13671875 5.71484375 C0.19310844 3.02933159 0.19310844 3.02933159 0 0 Z " fill="#E1F3FA" transform="translate(226,358)"/>
<path d="M0 0 C0.84015157 3.74850603 1.67093219 7.49902832 2.5 11.25 C2.73847656 12.31347656 2.97695313 13.37695312 3.22265625 14.47265625 C3.44824219 15.49746094 3.67382812 16.52226562 3.90625 17.578125 C4.11572266 18.52075195 4.32519531 19.46337891 4.54101562 20.43457031 C5 23 5 23 5 27 C-26.31498471 31.59938838 -26.31498471 31.59938838 -41 31 C-41 22.09 -41 13.18 -41 4 C-38.96457031 3.79503906 -36.92914063 3.59007812 -34.83203125 3.37890625 C-32.84951027 3.17717605 -30.86699103 2.97542838 -28.88452148 2.77319336 C-27.51221395 2.63365036 -26.13981873 2.49496688 -24.76733398 2.35717773 C-22.78866823 2.15837816 -20.8103451 1.95617774 -18.83203125 1.75390625 C-17.64327393 1.63345947 -16.4545166 1.5130127 -15.22973633 1.38891602 C-12.07754511 1.05271218 -12.07754511 1.05271218 -9.3112793 0.45678711 C-6.19209446 -0.15966951 -3.16969288 -0.06215084 0 0 Z " fill="#507BB2" transform="translate(321,459)"/>
<path d="M0 0 C11.19376239 3.47159045 21.31440092 9.51331437 31 16 C31.88429688 16.58523437 32.76859375 17.17046875 33.6796875 17.7734375 C35.79162049 19.17481359 37.89832103 20.5833127 40 22 C36.27667502 29.98128125 30.83819006 37.43203618 25 44 C20.71330023 42.46325857 16.97691316 40.26293357 13.125 37.875 C5.57850788 33.26393738 -2.15763939 29.08247708 -10 25 C-9.4176232 19.36732443 -7.33205594 14.77154503 -5 9.6875 C-4.44699219 8.45290039 -4.44699219 8.45290039 -3.8828125 7.19335938 C-1.15472274 1.15472274 -1.15472274 1.15472274 0 0 Z " fill="#059DDD" transform="translate(377,32)"/>
<path d="M0 0 C9.72982157 -0.28066793 19.02309696 0.17646759 28.6875 1.375 C29.72648437 1.50108643 30.76546875 1.62717285 31.8359375 1.75708008 C36.56077813 2.37586435 40.60425769 3.08786442 45 5 C44.46588214 13.85898937 42.85710087 22.34520917 41 31 C31.90101578 30.28641674 22.8267146 29.39078309 13.75 28.4375 C12.40756391 28.29741265 11.06511605 28.15743809 9.72265625 28.01757812 C6.48165561 27.67948813 3.24081127 27.33990039 0 27 C0 18.09 0 9.18 0 0 Z " fill="#039DDD" transform="translate(280,10)"/>
<path d="M0 0 C2.90039279 6.16816867 5.78926047 12.34356168 8.4375 18.625 C8.93056641 19.78902344 8.93056641 19.78902344 9.43359375 20.9765625 C10 23 10 23 9 26 C7.28857422 26.91967773 7.28857422 26.91967773 5.0546875 27.68359375 C4.23145996 27.96968506 3.40823242 28.25577637 2.56005859 28.55053711 C1.67398926 28.84323486 0.78791992 29.13593262 -0.125 29.4375 C-1.0226709 29.74244385 -1.9203418 30.0473877 -2.84521484 30.36157227 C-22.68472093 37 -22.68472093 37 -28 37 C-28.84228458 33.43955555 -29.67223903 29.87634656 -30.5 26.3125 C-30.73847656 25.30509766 -30.97695313 24.29769531 -31.22265625 23.25976562 C-31.44824219 22.28330078 -31.67382812 21.30683594 -31.90625 20.30078125 C-32.11572266 19.40528564 -32.32519531 18.50979004 -32.54101562 17.5871582 C-32.99994512 15.00030935 -33.08261971 12.62111026 -33 10 C-32.44650879 9.83918945 -31.89301758 9.67837891 -31.32275391 9.51269531 C-17.84259714 5.68268858 -17.84259714 5.68268858 -4.77734375 0.6640625 C-3 0 -3 0 0 0 Z " fill="#044F9C" transform="translate(351,417)"/>
<path d="M0 0 C7.5601808 0.86756173 14.62315236 3.04270995 21.8125 5.4375 C22.71959717 5.73793213 23.62669434 6.03836426 24.5612793 6.34790039 C29.24219351 7.93700101 33.64970634 9.64868425 38 12 C36.30387431 17.44545616 34.10842318 22.63474207 31.875 27.875 C31.50246094 28.75414063 31.12992187 29.63328125 30.74609375 30.5390625 C29.83276472 32.69358227 28.91735068 34.84719024 28 37 C23.98564961 36.31972833 20.37324309 35.11047112 16.5625 33.6875 C9.45802935 31.10132232 2.29477833 28.98444578 -5 27 C-4.47489999 21.11887992 -3.57917094 15.36312502 -2.5 9.5625 C-2.30410278 8.49708984 -2.30410278 8.49708984 -2.10424805 7.41015625 C-1.12489481 2.24978963 -1.12489481 2.24978963 0 0 Z " fill="#054F9C" transform="translate(323,46)"/>
<path d="M0 0 C5.05098986 1.50421328 9.49916837 3.65339312 14.125 6.125 C14.86548584 6.5180835 15.60597168 6.91116699 16.36889648 7.31616211 C22.86294495 10.81889345 28.9731428 14.73823392 35 19 C33.23050136 23.00886415 30.6325524 26.41804874 28.0625 29.9375 C25.19637986 33.8716358 22.42998883 37.77358379 20 42 C17.02555813 40.56031581 14.20083431 38.962069 11.375 37.25 C10.50101562 36.72277344 9.62703125 36.19554687 8.7265625 35.65234375 C6.9287078 34.56281289 5.13180943 33.47170222 3.3359375 32.37890625 C-1.03646209 29.73036813 -5.37885801 27.188962 -10 25 C-7.37589493 16.35588919 -3.68616238 8.23074615 0 0 Z " fill="#527CB2" transform="translate(364,60)"/>
<path d="M0 0 C2.1584862 1.12117688 3.74246297 2.34443537 5.53515625 3.9921875 C6.21835937 4.61222656 6.9015625 5.23226563 7.60546875 5.87109375 C8.36601562 6.57105469 9.1265625 7.27101563 9.91015625 7.9921875 C11.74245712 9.63917019 13.57579587 11.28499894 15.41015625 12.9296875 C16.91065571 14.28330072 18.41083563 15.63726866 19.91015625 16.9921875 C12.70947967 25.59787414 5.00348184 33.3418449 -4.08984375 39.9921875 C-4.74984375 39.9921875 -5.40984375 39.9921875 -6.08984375 39.9921875 C-6.08984375 40.6521875 -6.08984375 41.3121875 -6.08984375 41.9921875 C-8.56484375 42.4871875 -8.56484375 42.4871875 -11.08984375 42.9921875 C-11.85167969 41.9403125 -11.85167969 41.9403125 -12.62890625 40.8671875 C-13.31726563 39.9184375 -14.005625 38.9696875 -14.71484375 37.9921875 C-15.43800781 36.99058594 -16.16117187 35.98898437 -16.90625 34.95703125 C-19.22763945 31.80509101 -21.65368916 28.75566691 -24.15625 25.74609375 C-25.08984375 23.9921875 -25.08984375 23.9921875 -25.046875 22.0234375 C-23.68614743 19.13536266 -21.75185367 17.85220918 -19.21484375 15.9296875 C-13.78140598 11.68636387 -9.16382275 7.05344892 -4.5 1.984375 C-2.08984375 -0.0078125 -2.08984375 -0.0078125 0 0 Z " fill="#069EDD" transform="translate(412.08984375,374.0078125)"/>
<path d="M0 0 C0.6520027 2.81119304 1.29670121 5.62375031 1.9375 8.4375 C2.21110352 9.6121582 2.21110352 9.6121582 2.49023438 10.81054688 C3.71020238 16.20058734 4.47675456 21.49766112 5 27 C3.99646484 27.22042969 3.99646484 27.22042969 2.97265625 27.4453125 C-4.28361226 29.14006515 -11.2192719 31.3837696 -18.21069336 33.93017578 C-21.45300338 35.11049865 -24.64260798 36.2060472 -28 37 C-29.67257264 33.21091124 -31.33705115 29.41832115 -33 25.625 C-33.71542969 24.00464844 -33.71542969 24.00464844 -34.4453125 22.3515625 C-34.89648438 21.3203125 -35.34765625 20.2890625 -35.8125 19.2265625 C-36.23144531 18.27346191 -36.65039062 17.32036133 -37.08203125 16.33837891 C-38 14 -38 14 -38 12 C-28.15490837 6.8968103 -17.64905924 3.94462157 -7 1 C-5.96734009 0.71431152 -5.96734009 0.71431152 -4.91381836 0.42285156 C-3 0 -3 0 0 0 Z " fill="#059DDD" transform="translate(233,46)"/>
<path d="M0 0 C3.37781894 0.58770488 6.29794741 1.44676742 9.4375 2.8125 C17.04364858 5.94646197 25.0161924 8.05320948 33 10 C32.32969264 16.09626909 31.23964287 22.00922254 29.9375 28 C29.75123047 28.87011719 29.56496094 29.74023438 29.37304688 30.63671875 C28.9183875 32.75846252 28.45962195 34.87932571 28 37 C22.8084318 36.37051389 17.9485058 35.29777904 12.9375 33.8125 C12.20668213 33.59762939 11.47586426 33.38275879 10.72290039 33.16137695 C3.56276646 30.98611694 -3.2084274 28.13208816 -10 25 C-7.37589493 16.35588919 -3.68616238 8.23074615 0 0 Z " fill="#05509C" transform="translate(205,417)"/>
<path d="M0 0 C11.36800081 0.71520535 22.66975594 1.83593383 34 3 C34 11.91 34 20.82 34 30 C21.18844221 30.38822902 7.27187339 30.09062446 -5 26 C-4.56901343 17.03547936 -2.30110566 8.62647053 0 0 Z " fill="#079DDB" transform="translate(242,429)"/>
<path d="M0 0 C0 8.91 0 17.82 0 27 C-4.52036301 27.50459866 -9.04120937 28.00384255 -13.5625 28.5 C-15.47772461 28.71462891 -15.47772461 28.71462891 -17.43164062 28.93359375 C-18.67236328 29.06894531 -19.91308594 29.20429687 -21.19140625 29.34375 C-22.32779541 29.46943359 -23.46418457 29.59511719 -24.63500977 29.72460938 C-28.1053227 30.0086196 -31.51969272 30.04642989 -35 30 C-35.67429967 26.60563644 -36.3380828 23.20929807 -37 19.8125 C-37.19078125 18.85279297 -37.3815625 17.89308594 -37.578125 16.90429688 C-37.75859375 15.97294922 -37.9390625 15.04160156 -38.125 14.08203125 C-38.29257813 13.22843018 -38.46015625 12.3748291 -38.6328125 11.49536133 C-39.00595229 8.95954897 -39.06412996 6.55918603 -39 4 C-36.50056796 3.51770668 -34.00051757 3.03910574 -31.5 2.5625 C-30.80390625 2.42779297 -30.1078125 2.29308594 -29.390625 2.15429688 C-19.46571909 0.2704027 -10.11059891 -0.0902732 0 0 Z " fill="#517BB2" transform="translate(276,41)"/>
<path d="M0 0 C0.52464844 0.15855469 1.04929688 0.31710937 1.58984375 0.48046875 C10.04789161 3.02773441 18.52427778 5.51234603 27 8 C25.52814886 17.14097026 23.31460464 26.04495196 21 35 C14.11357167 33.60152532 7.58173303 31.64985223 0.9375 29.375 C-0.02349609 29.05015625 -0.98449219 28.7253125 -1.97460938 28.390625 C-4.31784644 27.59788808 -6.65956176 26.80095424 -9 26 C-10.29110605 20.9561439 -9.0426469 18.07137225 -6.75 13.5625 C-6.28013672 12.59860352 -6.28013672 12.59860352 -5.80078125 11.61523438 C-4.88124373 9.73609651 -3.94339241 7.86725599 -3 6 C-2.42765625 4.85402344 -1.8553125 3.70804687 -1.265625 2.52734375 C-0.84796875 1.69332031 -0.4303125 0.85929687 0 0 Z " fill="#517CB2" transform="translate(218,389)"/>
<path d="M0 0 C0.8382125 3.93647774 1.66973255 7.87433951 2.5 11.8125 C2.73847656 12.93205078 2.97695313 14.05160156 3.22265625 15.20507812 C3.56103516 16.81479492 3.56103516 16.81479492 3.90625 18.45703125 C4.11572266 19.44678955 4.32519531 20.43654785 4.54101562 21.45629883 C5 24 5 24 5 27 C-6.21919522 29.33270396 -16.52995762 30.31000115 -28 30 C-28 21.09 -28 12.18 -28 3 C-24.1225 2.505 -20.245 2.01 -16.25 1.5 C-14.4251709 1.26506836 -14.4251709 1.26506836 -12.56347656 1.02539062 C-11.59893555 0.90357422 -10.63439453 0.78175781 -9.640625 0.65625 C-8.65610352 0.53056641 -7.67158203 0.40488281 -6.65722656 0.27539062 C-4 0 -4 0 0 0 Z " fill="#039DDD" transform="translate(308,398)"/>
<path d="M0 0 C1.24609375 2.44140625 1.24609375 2.44140625 2.4375 5.5625 C3.91130552 9.31847105 5.41439897 12.93937786 7.3125 16.5 C9 20 9 20 9 24 C2.28342022 26.98938683 -4.50560874 29.62027135 -11.5 31.875 C-12.18191406 32.1021167 -12.86382812 32.3292334 -13.56640625 32.56323242 C-17.15906922 33.69040364 -19.41809971 34.10732898 -23 33 C-23.83840998 29.23027682 -24.6698549 25.4590511 -25.5 21.6875 C-25.73847656 20.61564453 -25.97695313 19.54378906 -26.22265625 18.43945312 C-26.44824219 17.41142578 -26.67382812 16.38339844 -26.90625 15.32421875 C-27.11572266 14.37635498 -27.32519531 13.42849121 -27.54101562 12.4519043 C-28 10 -28 10 -28 7 C-26.865625 6.67386719 -25.73125 6.34773438 -24.5625 6.01171875 C-23.04161934 5.5704756 -21.52078867 5.1290601 -20 4.6875 C-19.25621094 4.47416016 -18.51242187 4.26082031 -17.74609375 4.04101562 C-13.9578041 2.93747038 -10.2870286 1.74255878 -6.625 0.26953125 C-3 -1 -3 -1 0 0 Z " fill="#507BB3" transform="translate(339,390)"/>
<path d="M0 0 C7.2484975 0 13.91171242 0.00691476 21 0.9375 C21.72316406 1.02451172 22.44632812 1.11152344 23.19140625 1.20117188 C26.51896697 1.61481893 29.77442388 2.0676069 33 3 C31.7144018 12.10506018 30.01705777 21.03081643 28 30 C24.83316436 29.6891977 21.66656534 29.37604334 18.5 29.0625 C17.613125 28.97548828 16.72625 28.88847656 15.8125 28.79882812 C14.9359375 28.71181641 14.059375 28.62480469 13.15625 28.53515625 C12.36025391 28.456604 11.56425781 28.37805176 10.74414062 28.29711914 C7.1577161 27.90880254 3.57952889 27.44744111 0 27 C0 18.09 0 9.18 0 0 Z " fill="#527CB2" transform="translate(280,72)"/>
<path d="M0 0 C9.79639569 1.50014412 19.36006597 14.12888838 26 21 C23.59035072 24.12559829 21.19520595 26.88309393 18.1875 29.4375 C17.50042969 30.0253125 16.81335938 30.613125 16.10546875 31.21875 C15.06326172 32.10046875 15.06326172 32.10046875 14 33 C12.66625935 34.1453592 11.33289472 35.29115647 10 36.4375 C8.515 37.7059375 8.515 37.7059375 7 39 C4.05354008 37.68268423 2.12163996 36.3003931 -0.0625 33.9375 C-4.66409229 29.17515339 -9.82975285 25.12310848 -15 21 C-10.32561251 13.74095119 -5.2274704 6.86541113 0 0 Z " fill="#507BB2" transform="translate(383,108)"/>
<path d="M0 0 C4.20467344 1.63700124 6.37534701 6.06253221 8.90820312 9.62841797 C9.51857422 10.44890625 10.12894531 11.26939453 10.7578125 12.11474609 C11.32951172 12.90945313 11.90121094 13.70416016 12.49023438 14.52294922 C13.01464111 15.24973877 13.53904785 15.97652832 14.0793457 16.7253418 C15.09570312 18.81591797 15.09570312 18.81591797 14.96142578 20.93408203 C13.91100963 23.21738933 12.98468659 23.91833862 10.84960938 25.21826172 C10.1813916 25.63164795 9.51317383 26.04503418 8.82470703 26.47094727 C8.10976074 26.8941626 7.39481445 27.31737793 6.65820312 27.75341797 C5.93552246 28.19145752 5.2128418 28.62949707 4.46826172 29.08081055 C-7.48165576 36.24996135 -7.48165576 36.24996135 -11.90429688 37.81591797 C-15.81503888 35.86054697 -16.93776427 30.37134892 -18.59179688 26.50341797 C-19.02041016 25.53984375 -19.44902344 24.57626953 -19.890625 23.58349609 C-20.29087891 22.6534375 -20.69113281 21.72337891 -21.10351562 20.76513672 C-21.47307373 19.91266357 -21.84263184 19.06019043 -22.22338867 18.18188477 C-22.98914636 15.52108957 -23.04187487 14.33038765 -21.90429688 11.81591797 C-20.38549805 10.58325195 -20.38549805 10.58325195 -18.44726562 9.56201172 C-17.74666016 9.18238281 -17.04605469 8.80275391 -16.32421875 8.41162109 C-15.58751953 8.02941406 -14.85082031 7.64720703 -14.09179688 7.25341797 C-12.64642349 6.48383694 -11.20237115 5.71176876 -9.75976562 4.93701172 C-9.08091309 4.57720215 -8.40206055 4.21739258 -7.70263672 3.84667969 C-5.75070797 2.79228306 -5.75070797 2.79228306 -3.64257812 0.97607422 C-1.90429688 -0.18408203 -1.90429688 -0.18408203 0 0 Z " fill="#089DDB" transform="translate(364.904296875,374.18408203125)"/>
<path d="M0 0 C5.28875735 0.50670729 9.25852805 3.2952843 13.6875 6 C15.21203206 6.91701176 16.73676224 7.83369425 18.26171875 8.75 C18.93162842 9.15734375 19.60153809 9.5646875 20.29174805 9.984375 C22.02407887 11.04232433 22.02407887 11.04232433 24 12 C22.48763929 16.4451707 20.06298743 19.99691223 17.3125 23.75 C16.64855225 24.66773193 16.64855225 24.66773193 15.97119141 25.60400391 C12.42146828 30.48631748 8.76798456 35.28378092 5 40 C-0.56443814 36.13370102 -5.32574066 31.83799025 -10.01953125 26.953125 C-12.04213179 24.83519893 -12.04213179 24.83519893 -15 23 C-14.46759549 18.71988527 -11.79957072 15.8686014 -9.1875 12.625 C-5.92413152 8.52302728 -2.85196074 4.40092776 0 0 Z " fill="#517CB2" transform="translate(407,328)"/>
<path d="M0 0 C4.73645445 0.66928161 9.2024698 1.8647171 13.75 3.3125 C14.44867188 3.53252686 15.14734375 3.75255371 15.8671875 3.97924805 C21.35145002 5.73292194 26.70935994 7.72349863 32 10 C31.45539918 15.42048003 29.49729543 19.45049731 27 24.1875 C26.26916199 25.59679077 25.53992918 27.00691543 24.8125 28.41796875 C24.48894531 29.03438232 24.16539062 29.6507959 23.83203125 30.28588867 C22.87027369 32.17287457 22.87027369 32.17287457 22 35 C13.30348988 32.42867609 4.652148 29.71587276 -4 27 C-4.26570232 20.94696895 -3.25909363 15.47088194 -2 9.5625 C-1.80921875 8.64017578 -1.6184375 7.71785156 -1.421875 6.76757812 C-0.95405792 4.51036071 -0.47997253 2.2546582 0 0 Z " fill="#049DDD" transform="translate(316,76)"/>
<path d="M0 0 C9.24 0.99 18.48 1.98 28 3 C28 11.91 28 20.82 28 30 C16.62572324 30.36691215 6.16679096 29.00002226 -5 27 C-4.39833835 20.67305273 -3.37769866 14.62297605 -1.9375 8.4375 C-1.298125 5.653125 -0.65875 2.86875 0 0 Z " fill="#044F9B" transform="translate(248,398)"/>
<path d="M0 0 C0 8.91 0 17.82 0 27 C-9.5 27.9375 -9.5 27.9375 -12.44335938 28.22631836 C-17.6403506 28.74274029 -22.820744 29.32839087 -28 30 C-28.84228458 26.43955555 -29.67223903 22.87634656 -30.5 19.3125 C-30.73847656 18.30509766 -30.97695312 17.29769531 -31.22265625 16.25976562 C-31.44824219 15.28330078 -31.67382812 14.30683594 -31.90625 13.30078125 C-32.11572266 12.40528564 -32.32519531 11.50979004 -32.54101562 10.5871582 C-32.99994512 8.00030935 -33.08261971 5.62111026 -33 3 C-21.83320904 0.99997774 -11.37427676 -0.36691215 0 0 Z " fill="#044F9C" transform="translate(276,72)"/>
<path d="M0 0 C8.54375884 1.01925544 16.29113239 6.9310778 23 12 C22.37770996 15.40409469 21.09965425 17.55386801 19.05859375 20.328125 C18.47529297 21.12734375 17.89199219 21.9265625 17.29101562 22.75 C16.37352539 23.9875 16.37352539 23.9875 15.4375 25.25 C14.82197266 26.09046875 14.20644531 26.9309375 13.57226562 27.796875 C12.05368836 29.86873236 10.52947228 31.93617964 9 34 C5.92933365 33.29478663 3.80998357 32.38756533 1.1875 30.625 C-2.42815362 28.28466135 -5.99934631 26.58359209 -10 25 C-9.4176232 19.36732443 -7.33205594 14.77154503 -5 9.6875 C-4.44699219 8.45290039 -4.44699219 8.45290039 -3.8828125 7.19335938 C-1.15472274 1.15472274 -1.15472274 1.15472274 0 0 Z " fill="#527CB2" transform="translate(339,117)"/>
<path d="M0 0 C0.84268087 3.39358344 1.67247901 6.79019085 2.5 10.1875 C2.73847656 11.14720703 2.97695312 12.10691406 3.22265625 13.09570312 C3.56103516 14.49272461 3.56103516 14.49272461 3.90625 15.91796875 C4.11572266 16.77156982 4.32519531 17.6251709 4.54101562 18.50463867 C5.01093734 21.05946307 5.08117627 23.40844759 5 26 C2.43848317 26.81571218 -0.12412628 27.62766131 -2.6875 28.4375 C-3.40873047 28.66759766 -4.12996094 28.89769531 -4.87304688 29.13476562 C-8.56180375 30.2969767 -12.17959607 31.34442773 -16 32 C-17.29543103 28.95992315 -18.58565977 25.91766448 -19.875 22.875 C-20.23980469 22.0190625 -20.60460937 21.163125 -20.98046875 20.28125 C-22.8342619 15.8995571 -24.58343133 11.54793099 -26 7 C-23.79195441 6.20752336 -21.58357503 5.4159987 -19.375 4.625 C-18.14523438 4.18414062 -16.91546875 3.74328125 -15.6484375 3.2890625 C-14.44445312 2.86367187 -13.24046875 2.43828125 -12 2 C-10.98164063 1.61585937 -9.96328125 1.23171875 -8.9140625 0.8359375 C-5.80867945 -0.05488284 -3.21371537 -0.15303407 0 0 Z " fill="#07509B" transform="translate(246,107)"/>
<path d="M0 0 C0.8382125 3.93647774 1.66973255 7.87433951 2.5 11.8125 C2.73847656 12.93205078 2.97695313 14.05160156 3.22265625 15.20507812 C3.56103516 16.81479492 3.56103516 16.81479492 3.90625 18.45703125 C4.11572266 19.44678955 4.32519531 20.43654785 4.54101562 21.45629883 C5 24 5 24 5 27 C-4.13617395 29.16790568 -12.65928218 29.15967039 -22 29 C-22 20.09 -22 11.18 -22 2 C-18.926875 1.67 -15.85375 1.34 -12.6875 1 C-11.72287842 0.89558594 -10.75825684 0.79117187 -9.7644043 0.68359375 C-8.61838745 0.56177734 -8.61838745 0.56177734 -7.44921875 0.4375 C-6.27879028 0.31181641 -6.27879028 0.31181641 -5.0847168 0.18359375 C-3 0 -3 0 0 0 Z " fill="#507BB1" transform="translate(302,368)"/>
<path d="M0 0 C10 21.26666667 10 21.26666667 10 25 C7.54714482 25.995141 5.08909072 26.97088632 2.625 27.9375 C1.60599609 28.35418945 1.60599609 28.35418945 0.56640625 28.77929688 C-4.92138785 30.90774038 -10.1376796 31.65439806 -16 32 C-16.83840998 28.23027682 -17.6698549 24.4590511 -18.5 20.6875 C-18.73847656 19.61564453 -18.97695313 18.54378906 -19.22265625 17.43945312 C-19.44824219 16.41142578 -19.67382812 15.38339844 -19.90625 14.32421875 C-20.11572266 13.37635498 -20.32519531 12.42849121 -20.54101562 11.4519043 C-21 9 -21 9 -21 6 C-18.25262623 4.99222971 -15.50250048 3.99358554 -12.75 3 C-11.97269531 2.71382813 -11.19539063 2.42765625 -10.39453125 2.1328125 C-9.64042969 1.86210937 -8.88632812 1.59140625 -8.109375 1.3125 C-7.41811523 1.06113281 -6.72685547 0.80976563 -6.01464844 0.55078125 C-4 0 -4 0 0 0 Z " fill="#06509B" transform="translate(326,361)"/>
<path d="M0 0 C4.67808578 2.12482122 7.96716373 5.39891036 11.6875 8.875 C12.72100586 9.81279297 12.72100586 9.81279297 13.77539062 10.76953125 C14.43087891 11.37925781 15.08636719 11.98898437 15.76171875 12.6171875 C16.35944092 13.17003418 16.95716309 13.72288086 17.57299805 14.29248047 C19.15956038 16.19092648 19.59784275 17.58309759 20 20 C16.67274362 23.00680341 13.33713224 26.00416538 10 29 C9.21625 29.7115625 8.4325 30.423125 7.625 31.15625 C6.92375 31.7853125 6.2225 32.414375 5.5 33.0625 C4.8709375 33.63097656 4.241875 34.19945312 3.59375 34.78515625 C2 36 2 36 0 36 C-1.52444007 34.0083445 -2.9298962 32.0244652 -4.3125 29.9375 C-5.11772398 28.73906857 -5.92370809 27.54114751 -6.73046875 26.34375 C-7.11895996 25.76496094 -7.50745117 25.18617188 -7.90771484 24.58984375 C-9.24170696 22.64819049 -10.67815864 20.79597791 -12.125 18.9375 C-14 16 -14 16 -13.921875 14.1015625 C-12.6066469 11.10328828 -10.59964871 9.55709041 -8.125 7.4375 C-3.94840658 3.84051381 -3.94840658 3.84051381 0 0 Z " fill="#07509B" transform="translate(365,332)"/>
<path d="M0 0 C17.4715262 -0.29612756 17.4715262 -0.29612756 26 2 C26.26570232 8.05303105 25.25909363 13.52911806 24 19.4375 C23.71382813 20.82098633 23.71382813 20.82098633 23.421875 22.23242188 C22.95405792 24.48963929 22.47997253 26.7453418 22 29 C21.12601562 28.90912109 21.12601562 28.90912109 20.234375 28.81640625 C13.49243439 28.12737144 6.75691305 27.56307609 0 27 C0 18.09 0 9.18 0 0 Z " fill="#024F9D" transform="translate(280,103)"/>
<path d="M0 0 C6.17555864 1.2409515 12.05977027 2.91256987 18 5 C18.99 5.33 19.98 5.66 21 6 C19.5670802 15.05268156 17.83957765 24.02286105 16 33 C7.05951485 30.91462629 -1.59753724 28.79726682 -10 25 C-8.65039789 19.76435764 -6.79742723 15.10609769 -4.4375 10.25 C-2.00085345 5.21736989 -2.00085345 5.21736989 0 0 Z " fill="#079DDC" transform="translate(230,361)"/>
<path d="M0 0 C4.78980907 0.91271819 7.52206513 3.62993269 11.125 6.75 C11.75792969 7.2759375 12.39085937 7.801875 13.04296875 8.34375 C16.46194834 11.27637793 18.78427558 13.50348504 20 18 C15.64861344 22.44204044 11.26666734 26.85415035 6.6875 31.0625 C5.76517578 31.91521484 5.76517578 31.91521484 4.82421875 32.78515625 C3 34 3 34 -1 34 C-2.19643054 32.60416437 -3.38413605 31.19839454 -4.49609375 29.734375 C-7.2034152 26.61216533 -10.62997402 24.35818195 -14 22 C-13.49174096 17.31367933 -11.55259156 14.67632043 -8.6875 11 C-7.90761719 9.989375 -7.12773437 8.97875 -6.32421875 7.9375 C-4.22503188 5.28441004 -2.11873057 2.63750442 0 0 Z " fill="#089DDB" transform="translate(365,133)"/>
<path d="M0 0 C4.07093772 0.67848962 7.36653595 2.76030925 10.875 4.8125 C11.77412109 5.32780273 11.77412109 5.32780273 12.69140625 5.85351562 C16.56599813 8.09338273 20.30003942 10.48244273 24 13 C20.37414484 20.60893742 15.60423136 27.71646786 10 34 C6.59932135 33.40694567 4.83678628 32.2606901 2.3125 29.9375 C1.62800781 29.31617188 0.94351562 28.69484375 0.23828125 28.0546875 C-0.50035156 27.37664062 -1.23898437 26.69859375 -2 26 C-3.66466311 24.51857888 -5.33129642 23.03936837 -7 21.5625 C-8.33361301 20.3753141 -9.66704985 19.18793011 -11 18 C-10.29003528 14.38844032 -8.84284474 12.49259314 -6.41015625 9.7265625 C-3.94201056 6.70462235 -1.995385 3.34545401 0 0 Z " fill="#079DDB" transform="translate(380,312)"/>
<path d="M0 0 C0.33 0 0.66 0 1 0 C1.6732656 2.89444095 2.33880404 5.79030013 3 8.6875 C3.19078125 9.50412109 3.3815625 10.32074219 3.578125 11.16210938 C4.48733916 15.17239326 5.27000098 18.85717252 5 23 C12.1614172 21.35024944 18.99181611 19.40327356 25.8203125 16.671875 C28 16 28 16 30 17 C29.01 17.66 28.02 18.32 27 19 C27.495 19.99 27.495 19.99 28 21 C20.73969251 23.89288848 13.73465096 25.86299135 6 27 C6.26554687 28.02738281 6.53109375 29.05476563 6.8046875 30.11328125 C8.8312425 38.03561722 10.69883787 45.91909836 12 54 C7.51925805 57.36055646 4.39449293 57.27429625 -1 57 C2.16609462 55.12379578 4.35832401 54.90337178 8 55 C7.84853516 54.32420898 7.69707031 53.64841797 7.54101562 52.95214844 C6.85631025 49.88572177 6.17808935 46.81789616 5.5 43.75 C5.26152344 42.68652344 5.02304687 41.62304688 4.77734375 40.52734375 C4.55175781 39.50253906 4.32617188 38.47773438 4.09375 37.421875 C3.88427734 36.47924805 3.67480469 35.53662109 3.45898438 34.56542969 C3 32 3 32 3 28 C1.90042969 28.2165625 0.80085938 28.433125 -0.33203125 28.65625 C-8.62755743 30.23684216 -16.51304465 31.49491964 -25 31 C-25 29.68 -25 28.36 -25 27 C-23.97261719 26.93941406 -22.94523437 26.87882812 -21.88671875 26.81640625 C-13.91039762 26.33717129 -5.95275637 25.79190582 2 25 C1.71125 23.79601562 1.4225 22.59203125 1.125 21.3515625 C0.74988264 19.7760696 0.37488905 18.20054724 0 16.625 C-0.19078125 15.8309375 -0.3815625 15.036875 -0.578125 14.21875 C-0.84882813 13.07792969 -0.84882813 13.07792969 -1.125 11.9140625 C-1.29257812 11.2123291 -1.46015625 10.5105957 -1.6328125 9.78759766 C-2 8 -2 8 -2 6 C-1.34 6 -0.68 6 0 6 C0 4.02 0 2.04 0 0 Z " fill="#E0F7FC" transform="translate(305,370)"/>
<path d="M0 0 C0.33 0.66 0.66 1.32 1 2 C2.093125 1.814375 3.18625 1.62875 4.3125 1.4375 C11.00674992 1.41380354 15.3515798 6.7484782 20 11 C21.56047118 12.35650408 23.12271772 13.71097123 24.6875 15.0625 C25.7933256 16.03979276 26.89820211 17.01816865 28 18 C27.34 18.66 26.68 19.32 26 20 C25.3574765 22.06874034 25.3574765 22.06874034 25 24 C23.35 24.33 21.7 24.66 20 25 C20.66 23.35 21.32 21.7 22 20 C17.63063643 14.12395933 12.1944206 8.92344077 6 5 C2.36569616 5.37178561 1.96133244 6.04709973 -0.5078125 9.0546875 C-1.3914086 10.32037921 -2.26345946 11.59419344 -3.125 12.875 C-3.78822266 13.83212891 -3.78822266 13.83212891 -4.46484375 14.80859375 C-8.37010602 19.60252342 -8.37010602 19.60252342 -9.75 25.0625 C-9.07467282 27.19476975 -9.07467282 27.19476975 -7 29 C-11.75 28.25 -11.75 28.25 -14 26 C-14 19.39792373 -11.04195889 15.74191236 -7 10.75 C-5.89250094 9.35159105 -4.78818811 7.95065114 -3.6875 6.546875 C-3.19636719 5.93682617 -2.70523437 5.32677734 -2.19921875 4.69824219 C-0.80555531 2.89819041 -0.80555531 2.89819041 0 0 Z " fill="#D8F2FA" transform="translate(362,129)"/>
<path d="M0 0 C0.66 0 1.32 0 2 0 C2.495 0.99 2.495 0.99 3 2 C3.99 2.66 4.98 3.32 6 4 C5.13375 4.82177734 5.13375 4.82177734 4.25 5.66015625 C1.89013437 8.11425263 -0.02964496 10.66283988 -2 13.4375 C-4.57110124 17.04808944 -7.2286042 20.54152899 -10 24 C-10.66 24.99 -11.32 25.98 -12 27 C-12 26.01 -12 25.02 -12 24 C-13.32 24.33 -14.64 24.66 -16 25 C-16.0825 25.5775 -16.165 26.155 -16.25 26.75 C-17.20531013 29.6159304 -18.78469173 30.9990764 -21 33 C-21.66 32.67 -22.32 32.34 -23 32 C-22.319375 31.4225 -21.63875 30.845 -20.9375 30.25 C-20.298125 29.5075 -19.65875 28.765 -19 28 C-19.46473174 22.60025979 -24.22184922 19.4046221 -28 16 C-31.28095844 13.26354104 -34.61583247 10.60747335 -38 8 C-36.68 7.34 -35.36 6.68 -34 6 C-29.09077623 9.48108595 -24.68723457 13.11370036 -20.54296875 17.484375 C-17.7698405 20.21304897 -17.7698405 20.21304897 -14.09765625 21.01953125 C-10.85752074 19.44471679 -9.33202386 16.62992239 -7.4375 13.6875 C-6.66593726 12.5243595 -5.89381423 11.36159044 -5.12109375 10.19921875 C-4.42113281 9.14347656 -3.72117187 8.08773438 -3 7 C-2.41347656 6.26394531 -1.82695312 5.52789062 -1.22265625 4.76953125 C0.28422711 2.94711652 0.28422711 2.94711652 0 0 Z " fill="#DBF3FB" transform="translate(403,324)"/>
<path d="M0 0 C1.15941038 3.47823115 0.70820884 5.45895578 0 9 C0.57854736 9.29656494 1.15709473 9.59312988 1.75317383 9.89868164 C4.44245985 11.28118496 7.12811115 12.67051103 9.8125 14.0625 C10.77341553 14.56040039 11.73433105 15.05830078 12.72436523 15.57128906 C18.73250662 18.71746651 24.4228701 22.00225183 29.94140625 25.953125 C31.96083544 27.22871972 31.96083544 27.22871972 34.27734375 26.671875 C34.84582031 26.45015625 35.41429687 26.2284375 36 26 C35.67 27.32 35.34 28.64 35 30 C34.01 30 33.02 30 32 30 C31.505 31.485 31.505 31.485 31 33 C31 32.34 31 31.68 31 31 C30.25878906 30.731875 29.51757812 30.46375 28.75390625 30.1875 C26.07980933 29.03441424 24.22472214 27.77847553 21.9375 26 C13.94947161 20.23154591 4.85159586 16.25830048 -4 12 C-3.34 11.67 -2.68 11.34 -2 11 C-2.33 8.69 -2.66 6.38 -3 4 C-2.34 4 -1.68 4 -1 4 C-0.67 2.68 -0.34 1.36 0 0 Z " fill="#DFF5FB" transform="translate(368,48)"/>
<path d="M0 0 C0.33 0 0.66 0 1 0 C1.25623535 5.38094232 1.04230834 10.18631959 -0.06782532 15.47027588 C-2.17374168 25.63979755 -2.429348 35.583098 -2.33618164 45.93994141 C-2.31240704 48.76103028 -2.31567298 51.58117856 -2.32226562 54.40234375 C-2.30752825 63.2472406 -2.07654574 71.76918137 -0.4387207 80.48217773 C0.12537406 83.71952289 0.15230552 86.72543124 0 90 C-12.72016679 66.92132709 -5.61006754 24.33789892 0 0 Z " fill="#265E95" transform="translate(74,202)"/>
<path d="M0 0 C0 1.32 0 2.64 0 4 C-22.59489033 6.18137854 -22.59489033 6.18137854 -33 7 C-32.34 6.67 -31.68 6.34 -31 6 C-31 5.34 -31 4.68 -31 4 C-31.99 3.67 -32.98 3.34 -34 3 C-10.21122564 -0.58165209 -10.21122564 -0.58165209 0 0 Z " fill="#F1FAFD" transform="translate(276,68)"/>
<path d="M0 0 C0.33 2.64 0.66 5.28 1 8 C-1 5 -1 5 -1 3 C-5.62 3.33 -10.24 3.66 -15 4 C-15 4.33 -15 4.66 -15 5 C-18.96 5 -22.92 5 -27 5 C-27 12.92 -27 20.84 -27 29 C-25.040625 28.855625 -23.08125 28.71125 -21.0625 28.5625 C-19.96035156 28.48128906 -18.85820312 28.40007812 -17.72265625 28.31640625 C-15.08890097 28.29581916 -15.08890097 28.29581916 -14 27 C-11.64686445 26.92728259 -9.29166332 26.91629132 -6.9375 26.9375 C-5.64714844 26.94652344 -4.35679687 26.95554687 -3.02734375 26.96484375 C-2.02832031 26.97644531 -1.02929688 26.98804688 0 27 C-8.33531167 31.45757972 -18.83836423 30.07634696 -28 30 C-28 21.09 -28 12.18 -28 3 C-24.1225 2.505 -20.245 2.01 -16.25 1.5 C-14.4251709 1.26506836 -14.4251709 1.26506836 -12.56347656 1.02539062 C-11.59893555 0.90357422 -10.63439453 0.78175781 -9.640625 0.65625 C-8.65610352 0.53056641 -7.67158203 0.40488281 -6.65722656 0.27539062 C-4 0 -4 0 0 0 Z " fill="#289CCB" transform="translate(308,398)"/>
<path d="M0 0 C6.28173657 1.011722 12.31029268 2.60892152 18.375 4.5 C19.40947266 4.82037231 19.40947266 4.82037231 20.46484375 5.1472168 C23.78704056 6.20246938 26.94578265 7.30843347 30 9 C30 10.32 30 11.64 30 13 C23.49076376 11.1355454 17.05277873 9.06286603 10.625 6.9375 C9.84012207 6.6801709 9.05524414 6.4228418 8.24658203 6.15771484 C7.49747559 5.90844238 6.74836914 5.65916992 5.9765625 5.40234375 C5.30705566 5.18054443 4.63754883 4.95874512 3.94775391 4.73022461 C1.88137719 3.9555276 -0.04397097 3.01891281 -2 2 C-1.34 2 -0.68 2 0 2 C0 1.34 0 0.68 0 0 Z " fill="#DCF6FD" transform="translate(318,73)"/>
<path d="M0 0 C5.28 0 10.56 0 16 0 C16 0.33 16 0.66 16 1 C13.36 1 10.72 1 8 1 C8 1.66 8 2.32 8 3 C6.68 2.67 5.36 2.34 4 2 C4 2.66 4 3.32 4 4 C3.01 4 2.02 4 1 4 C1 11.26 1 18.52 1 26 C4.4959375 25.938125 4.4959375 25.938125 8.0625 25.875 C18.89650905 25.80337759 29.55762259 27.0164636 40 30 C40.33 29.34 40.66 28.68 41 28 C41 28.99 41 29.98 41 31 C31.90101578 30.28641674 22.8267146 29.39078309 13.75 28.4375 C12.40756391 28.29741265 11.06511605 28.15743809 9.72265625 28.01757812 C6.48165561 27.67948813 3.24081127 27.33990039 0 27 C0 18.09 0 9.18 0 0 Z " fill="#2599C8" transform="translate(280,10)"/>
<path d="M0 0 C0 0.66 0 1.32 0 2 C0.99 2.33 1.98 2.66 3 3 C-7.16290329 7.38056176 -17.20023258 10.58743698 -28 13 C-28 11.68 -28 10.36 -28 9 C-27.28344238 8.76289307 -26.56688477 8.52578613 -25.82861328 8.28149414 C-22.59355659 7.21005555 -19.35927115 6.13630739 -16.125 5.0625 C-14.43310547 4.50272461 -14.43310547 4.50272461 -12.70703125 3.93164062 C-11.09248047 3.39506836 -11.09248047 3.39506836 -9.4453125 2.84765625 C-8.45031738 2.51773682 -7.45532227 2.18781738 -6.43017578 1.84790039 C-1.13389001 0 -1.13389001 0 0 0 Z " fill="#E3F2FA" transform="translate(348,414)"/>
<path d="M0 0 C2.0625 0.4375 2.0625 0.4375 4 1 C1.525 2.485 1.525 2.485 -1 4 C-0.40227336 7.43493576 0.47527784 10.44231496 1.84765625 13.64453125 C2.20537109 14.48564453 2.56308594 15.32675781 2.93164062 16.19335938 C3.30482422 17.05767578 3.67800781 17.92199219 4.0625 18.8125 C4.43955078 19.69615234 4.81660156 20.57980469 5.20507812 21.49023438 C6.13248554 23.66201124 7.06423634 25.83181367 8 28 C6.68 28.99 5.36 29.98 4 31 C3.75765625 30.3709375 3.5153125 29.741875 3.265625 29.09375 C1.62519371 24.90434087 -0.03995703 20.80230027 -2.125 16.8125 C-3.95126247 13.28220523 -5.03692418 9.85230327 -6 6 C-4 4 -2 2 0 0 Z " fill="#DBF4FA" transform="translate(344,383)"/>
<path d="M0 0 C3.3437141 3.8711138 5.15154753 8.4273026 7.1875 13.0625 C7.55552734 13.87783203 7.92355469 14.69316406 8.30273438 15.53320312 C8.65013672 16.31759766 8.99753906 17.10199219 9.35546875 17.91015625 C9.67153076 18.62308838 9.98759277 19.33602051 10.31323242 20.07055664 C11 22 11 22 11 25 C13.97 24.01 16.94 23.02 20 22 C17.10455408 25.32440087 15.31188509 26.31917604 11 27 C10.34 27.66 9.68 28.32 9 29 C8.68546875 28.23816406 8.3709375 27.47632812 8.046875 26.69140625 C5.71485012 21.06504502 3.35197589 15.46657078 0.796875 9.9375 C-0.72191562 6.24475418 -1.23718904 3.84903256 0 0 Z " fill="#D2F2FB" transform="translate(194,58)"/>
<path d="M0 0 C17.4715262 -0.29612756 17.4715262 -0.29612756 26 2 C26 2.33 26 2.66 26 3 C23.52064036 2.85701852 21.04155092 2.71066807 18.5625 2.5625 C17.87478516 2.52318359 17.18707031 2.48386719 16.47851562 2.44335938 C11.27916202 2.12897985 6.19314375 1.57701597 1 1 C1.33 8.92 1.66 16.84 2 25 C7.17527585 25.28888213 7.17527585 25.28888213 12.35107422 25.56811523 C17.77777778 25.88888889 17.77777778 25.88888889 20 27 C20.66 23.7 21.32 20.4 22 17 C22.33 17 22.66 17 23 17 C22.67 20.96 22.34 24.92 22 29 C20.5975 28.855625 19.195 28.71125 17.75 28.5625 C11.83867176 27.98421789 5.9190298 27.49325248 0 27 C0 18.09 0 9.18 0 0 Z " fill="#19518A" transform="translate(280,103)"/>
<path d="M0 0 C2.33276367 0.19970703 2.33276367 0.19970703 5 1 C6.4855957 3.08544922 6.4855957 3.08544922 7.67578125 5.8046875 C8.11083984 6.78050781 8.54589844 7.75632812 8.99414062 8.76171875 C9.64672852 10.30279297 9.64672852 10.30279297 10.3125 11.875 C10.76689453 12.89464844 11.22128906 13.91429688 11.68945312 14.96484375 C15 22.5218515 15 22.5218515 15 26 C15.66 26.33 16.32 26.66 17 27 C15.68 27 14.36 27 13 27 C12.67 27.66 12.34 28.32 12 29 C11.8040625 28.49855469 11.608125 27.99710938 11.40625 27.48046875 C7.76037189 18.25576854 3.86526254 9.1342849 0 0 Z " fill="#DDF0F9" transform="translate(215,113)"/>
<path d="M0 0 C1.32 0 2.64 0 4 0 C4 8.91 4 17.82 4 27 C2.68 27 1.36 27 0 27 C0 18.09 0 9.18 0 0 Z " fill="#D8F2FC" transform="translate(276,401)"/>
<path d="M0 0 C0.33 0.99 0.66 1.98 1 3 C1.66 3 2.32 3 3 3 C3.33 2.01 3.66 1.02 4 0 C4 8.91 4 17.82 4 27 C2.68 27 1.36 27 0 27 C0 18.09 0 9.18 0 0 Z " fill="#E1EEFA" transform="translate(276,72)"/>
<path d="M0 0 C0.66 0 1.32 0 2 0 C0.46362677 8.69406496 -1.24842651 17.34722694 -3 26 C-2.01 26.33 -1.02 26.66 0 27 C-3.3 26.67 -6.6 26.34 -10 26 C-9.01 25.67 -8.02 25.34 -7 25 C-6.896875 23.783125 -6.79375 22.56625 -6.6875 21.3125 C-6.01161197 15.09035428 -4.49138037 9.06869875 -3 3 C-2.34 3.33 -1.68 3.66 -1 4 C-0.67 2.68 -0.34 1.36 0 0 Z " fill="#C4EAF6" transform="translate(240,429)"/>
<path d="M0 0 C0.70204038 3.08020777 1.38405208 6.16451736 2.0625 9.25 C2.36124023 10.55904297 2.36124023 10.55904297 2.66601562 11.89453125 C2.84970703 12.73886719 3.03339844 13.58320312 3.22265625 14.453125 C3.39547119 15.22817383 3.56828613 16.00322266 3.74633789 16.80175781 C4.02112978 19.18311121 3.70311964 20.72625635 3 23 C2.65939189 24.66519519 2.32441604 26.33157466 2 28 C0.49464584 25.2177337 -0.42215556 22.6862896 -1.0703125 19.59375 C-1.24433594 18.76746094 -1.41835937 17.94117187 -1.59765625 17.08984375 C-1.85869141 15.80787109 -1.85869141 15.80787109 -2.125 14.5 C-2.39763672 13.21802734 -2.39763672 13.21802734 -2.67578125 11.91015625 C-3.45968267 8.13210503 -4 4.88870339 -4 1 C-1 0 -1 0 0 0 Z " fill="#DBF3FA" transform="translate(237,45)"/>
<path d="M0 0 C0.99 0.33 1.98 0.66 3 1 C2.27643663 10.11689851 0.65707093 19.01638277 -1 28 C-1.33 28 -1.66 28 -2 28 C-2.33 26.02 -2.66 24.04 -3 22 C-3.66 22.99 -4.32 23.98 -5 25 C-4.29058623 19.43670254 -3.18398149 14.02851955 -1.9375 8.5625 C-1.75123047 7.73556641 -1.56496094 6.90863281 -1.37304688 6.05664062 C-0.9177995 4.03720996 -0.45924139 2.01852613 0 0 Z " fill="#E5F7FC" transform="translate(313,75)"/>
<path d="M0 0 C-0.99 0.66 -1.98 1.32 -3 2 C-2.67 2.66 -2.34 3.32 -2 4 C-8.92810652 6.71328887 -15.65313537 8.78880323 -23 10 C-23 9.01 -23 8.02 -23 7 C-23.66 6.67 -24.32 6.34 -25 6 C-24.26136719 5.82984375 -23.52273438 5.6596875 -22.76171875 5.484375 C-16.36184781 3.95556212 -10.29090224 2.1163609 -4.1796875 -0.328125 C-2 -1 -2 -1 0 0 Z " fill="#D9ECF7" transform="translate(335,387)"/>
<path d="M0 0 C6.17555864 1.2409515 12.05977027 2.91256987 18 5 C18.99 5.33 19.98 5.66 21 6 C20.34 9.96 19.68 13.92 19 18 C18.67 18 18.34 18 18 18 C18.33 14.7 18.66 11.4 19 8 C18.01 8 17.02 8 16 8 C16 7.34 16 6.68 16 6 C15.01 5.896875 14.02 5.79375 13 5.6875 C8.71702837 5.09191294 5.00003629 3.61404973 1 2 C0.34 5.3 -0.32 8.6 -1 12 C-1.66 12 -2.32 12 -3 12 C-3.66 14.31 -4.32 16.62 -5 19 C-5.66 19 -6.32 19 -7 19 C-5.58495328 12.18204762 -3.01578157 6.26177547 0 0 Z " fill="#279BCB" transform="translate(230,361)"/>
<path d="M0 0 C2.70860124 0.14176421 5.41680752 0.28828216 8.125 0.4375 C9.26582031 0.49647461 9.26582031 0.49647461 10.4296875 0.55664062 C14.68509203 0.79509002 18.80370826 1.20230237 23 2 C23.33 3.32 23.66 4.64 24 6 C15.75 5.34 7.5 4.68 -1 4 C-0.67 2.68 -0.34 1.36 0 0 Z " fill="#E6F5FC" transform="translate(281,99)"/>
<path d="M0 0 C0.99 0.33 1.98 0.66 3 1 C2.40644629 6.30018387 0.62627368 10.58136893 -1.5625 15.375 C-1.89185547 16.11105469 -2.22121094 16.84710938 -2.56054688 17.60546875 C-3.36747805 19.40644557 -4.1828826 21.20362181 -5 23 C-5.99 22.34 -6.98 21.68 -8 21 C-7.32512263 16.18080529 -5.42034091 12.08116134 -3.4375 7.6875 C-2.9434668 6.57665039 -2.9434668 6.57665039 -2.43945312 5.44335938 C-1.63082877 3.62688438 -0.81602884 1.81316069 0 0 Z " fill="#DBEEF9" transform="translate(201,417)"/>
<path d="M0 0 C1.95979369 2.93969054 2.48320069 4.55022586 3.125 7.9375 C3.29257812 8.79214844 3.46015625 9.64679688 3.6328125 10.52734375 C4 13 4 13 4 17 C0.79279138 17.5073957 -2.41592163 18.004579 -5.625 18.5 C-6.52863281 18.64308594 -7.43226563 18.78617187 -8.36328125 18.93359375 C-12.95439866 19.63734167 -17.33831815 20.18584778 -22 20 C-22.33 19.34 -22.66 18.68 -23 18 C-11.615 16.515 -11.615 16.515 0 15 C0 10.05 0 5.1 0 0 Z " fill="#6B89B0" transform="translate(322,469)"/>
<path d="M0 0 C1.32 0.66 2.64 1.32 4 2 C1.36 8.27 -1.28 14.54 -4 21 C-4.66 20.34 -5.32 19.68 -6 19 C-6.66 19.33 -7.32 19.66 -8 20 C-5.83836487 13.06001352 -3.1063786 6.56882431 0 0 Z " fill="#E3F1F9" transform="translate(359,62)"/>
<path d="M0 0 C4.73645445 0.66928161 9.2024698 1.8647171 13.75 3.3125 C14.44867188 3.53252686 15.14734375 3.75255371 15.8671875 3.97924805 C21.35145002 5.73292194 26.70935994 7.72349863 32 10 C31.625 12.9375 31.625 12.9375 31 16 C30.34 16.33 29.68 16.66 29 17 C29 15.02 29 13.04 29 11 C28.2265625 10.74605469 27.453125 10.49210937 26.65625 10.23046875 C17.13736707 7.0849963 17.13736707 7.0849963 12.75 5.3125 C8.7059584 3.89708544 5.24859681 3.379339 1 3 C1 5.31 1 7.62 1 10 C0.34 10 -0.32 10 -1 10 C-0.67 6.7 -0.34 3.4 0 0 Z " fill="#2A9CCB" transform="translate(316,76)"/>
<path d="M0 0 C0 0.99 0 1.98 0 3 C-0.99 3.33 -1.98 3.66 -3 4 C-2.40312566 7.34249629 -1.26396123 9.46436342 1 12 C1.66 12 2.32 12 3 12 C3 11.34 3 10.68 3 10 C3.66 10 4.32 10 5 10 C4.814375 11.0725 4.62875 12.145 4.4375 13.25 C3.89393783 17.27923662 3.89393783 17.27923662 5 21 C5.99 21.33 6.98 21.66 8 22 C7.67 22.99 7.34 23.98 7 25 C5.66554463 23.33423158 4.33250549 21.6673286 3 20 C2.20980469 19.01902344 1.41960937 18.03804688 0.60546875 17.02734375 C-0.19246094 16.00769531 -0.99039062 14.98804688 -1.8125 13.9375 C-2.62332031 12.91527344 -3.43414062 11.89304687 -4.26953125 10.83984375 C-6 8 -6 8 -5.921875 5.76953125 C-4.53601855 3.10939154 -2.40184742 1.72440328 0 0 Z " fill="#159DD4" transform="translate(393,390)"/>
<path d="M0 0 C0.33 0.99 0.66 1.98 1 3 C1.66 2.67 2.32 2.34 3 2 C1.9161623 4.7588596 0.98691035 6.01033393 -1.375 7.875 C-4.31710747 10.25670604 -5.93049688 12.86006422 -8 16 C-8.66 16 -9.32 16 -10 16 C-10.33 16.99 -10.66 17.98 -11 19 C-11.99 18.67 -12.98 18.34 -14 18 C-13.24074219 17.03578125 -12.48148437 16.0715625 -11.69921875 15.078125 C-10.69528885 13.80210194 -9.69138391 12.52605924 -8.6875 11.25 C-8.18798828 10.61578125 -7.68847656 9.9815625 -7.17382812 9.328125 C-4.74794301 6.24355585 -2.33433646 3.15493938 0 0 Z " fill="#1B5A9B" transform="translate(121,111)"/>
<path d="M0 0 C0.33 0 0.66 0 1 0 C1.33776684 1.7491497 1.67003671 3.49936145 2 5.25 C2.185625 6.22453125 2.37125 7.1990625 2.5625 8.203125 C3 11 3 11 3 15 C2.2265625 15.18175781 1.453125 15.36351563 0.65625 15.55078125 C-4.17904649 16.71771543 -8.89227385 17.85629437 -13.5 19.75 C-17.01496459 21.0053445 -17.68812497 21.07490681 -21 20 C-19 17 -19 17 -15.4453125 16.05078125 C-14.00749613 15.79165538 -12.56719024 15.54605824 -11.125 15.3125 C-10.04412109 15.11817383 -10.04412109 15.11817383 -8.94140625 14.91992188 C-5.56073348 14.33157275 -2.44130802 14 1 14 C0.7525 13.0409375 0.7525 13.0409375 0.5 12.0625 C-0.15932515 8.02413348 -0.08003779 4.08192742 0 0 Z " fill="#2A9DCC" transform="translate(235,58)"/>
<path d="M0 0 C0.33 0 0.66 0 1 0 C1.6986179 2.91440599 2.3842031 5.83086087 3.0625 8.75 C3.36124023 9.9875 3.36124023 9.9875 3.66601562 11.25 C3.84970703 12.04921875 4.03339844 12.8484375 4.22265625 13.671875 C4.39547119 14.4050293 4.56828613 15.13818359 4.74633789 15.89355469 C5.02424428 18.20132783 4.69809241 19.79916037 4 22 C4 21.34 4 20.68 4 20 C3.34 20 2.68 20 2 20 C1.67 20.66 1.34 21.32 1 22 C0.01 16.72 -0.98 11.44 -2 6 C-1.34 6 -0.68 6 0 6 C0 4.02 0 2.04 0 0 Z " fill="#E4F3FA" transform="translate(305,370)"/>
<path d="M0 0 C0 8.91 0 17.82 0 27 C-0.33 27 -0.66 27 -1 27 C-1 18.42 -1 9.84 -1 1 C-4.63 1.66 -8.26 2.32 -12 3 C-14.94004219 3.12553553 -17.76070434 3.1980996 -20.6875 3.125 C-21.40099609 3.11597656 -22.11449219 3.10695313 -22.84960938 3.09765625 C-24.56656017 3.07460993 -26.2833323 3.03877041 -28 3 C-28 2.67 -28 2.34 -28 2 C-18.45436965 0.37521186 -9.68213012 -0.19759449 0 0 Z " fill="#134E86" transform="translate(276,72)"/>
<path d="M0 0 C1.32 0.33 2.64 0.66 4 1 C3.67 1.33 3.34 1.66 3 2 C3.20583575 4.41931589 3.47781507 6.78550949 3.8125 9.1875 C3.9372168 10.1784668 3.9372168 10.1784668 4.06445312 11.18945312 C4.62343951 15.32268825 5.55857467 19.08929754 7 23 C7.7425 22.67 8.485 22.34 9.25 22 C12 21 12 21 16 21 C16 21.66 16 22.32 16 23 C12.37 23.66 8.74 24.32 5 25 C4.16272059 21.39670827 3.33001682 17.79246494 2.5 14.1875 C2.26152344 13.16333984 2.02304687 12.13917969 1.77734375 11.08398438 C1.55175781 10.10107422 1.32617188 9.11816406 1.09375 8.10546875 C0.88427734 7.19949951 0.67480469 6.29353027 0.45898438 5.36010742 C0 3 0 3 0 0 Z " fill="#235D98" transform="translate(318,429)"/>
<path d="M0 0 C0.33 0 0.66 0 1 0 C1 1.98 1 3.96 1 6 C1.99 6.33 2.98 6.66 4 7 C4 7.66 4 8.32 4 9 C2.35 9.33 0.7 9.66 -1 10 C-1.33 12.64 -1.66 15.28 -2 18 C-2.33 18 -2.66 18 -3 18 C-3 14.37 -3 10.74 -3 7 C-3.99 6.67 -4.98 6.34 -6 6 C-5.38125 5.938125 -4.7625 5.87625 -4.125 5.8125 C-1.72238859 5.171081 -1.72238859 5.171081 -0.75 2.4375 C-0.5025 1.633125 -0.255 0.82875 0 0 Z " fill="#EFFAFC" transform="translate(241,419)"/>
<path d="M0 0 C5.83152493 3.11291367 11.58700334 6.19627262 17 10 C15.34832443 13.5786304 13.21713508 16.74820188 11 20 C10.67 19.01 10.34 18.02 10 17 C11.4375 14.3125 11.4375 14.3125 13 12 C10.72584713 8.62911733 10.72584713 8.62911733 7 7 C7 6.34 7 5.68 7 5 C5.68 5 4.36 5 3 5 C1.25 3.625 1.25 3.625 0 2 C0 1.34 0 0.68 0 0 Z " fill="#2199C9" transform="translate(400,44)"/>
<path d="M0 0 C0.33 0 0.66 0 1 0 C1 4.29 1 8.58 1 13 C1.99 13.33 2.98 13.66 4 14 C0.7 13.67 -2.6 13.34 -6 13 C-5.01 12.67 -4.02 12.34 -3 12 C-2.95101562 11.38511719 -2.90203125 10.77023437 -2.8515625 10.13671875 C-2.77679688 9.32847656 -2.70203125 8.52023437 -2.625 7.6875 C-2.52058594 6.48673828 -2.52058594 6.48673828 -2.4140625 5.26171875 C-2 3 -2 3 0 0 Z " fill="#D7F1F9" transform="translate(236,442)"/>
<path d="M0 0 C4.29 0.66 8.58 1.32 13 2 C13 2.33 13 2.66 13 3 C9.04 3 5.08 3 1 3 C0.855625 4.36125 0.71125 5.7225 0.5625 7.125 C0.1588645 10.77501819 -0.35100787 14.38418668 -1 18 C-2.96282811 15.20402902 -3.00108464 14.00812564 -2.5390625 10.546875 C-2.23742187 9.29390625 -1.93578125 8.0409375 -1.625 6.75 C-1.32851562 5.48671875 -1.03203125 4.2234375 -0.7265625 2.921875 C-0.48679688 1.95765625 -0.24703125 0.9934375 0 0 Z " fill="#1D5792" transform="translate(248,398)"/>
<path d="M0 0 C-0.99 0.495 -0.99 0.495 -2 1 C-2.33 1.66 -2.66 2.32 -3 3 C-3.99 2.67 -4.98 2.34 -6 2 C-6.33 2.99 -6.66 3.98 -7 5 C-7 4.34 -7 3.68 -7 3 C-7.99 3.495 -7.99 3.495 -9 4 C-9 5.65 -9 7.3 -9 9 C-10.32 8.67 -11.64 8.34 -13 8 C-13.33 6.02 -13.66 4.04 -14 2 C-9.07262981 0.02905192 -5.21979128 -0.1799928 0 0 Z " fill="#5F83B1" transform="translate(325,395)"/>
<path d="M0 0 C1.95903745 0.47627975 3.91721097 0.95611423 5.875 1.4375 C6.96554688 1.70433594 8.05609375 1.97117187 9.1796875 2.24609375 C12 3 12 3 14 4 C13.67 4.99 13.34 5.98 13 7 C11.741875 6.87625 10.48375 6.7525 9.1875 6.625 C8.12595703 6.52058594 8.12595703 6.52058594 7.04296875 6.4140625 C5 6 5 6 2 4 C2.33 3.67 2.66 3.34 3 3 C2.01 2.01 1.02 1.02 0 0 Z " fill="#D5F0F8" transform="translate(232,390)"/>
<path d="M0 0 C7 8.44827586 7 8.44827586 7 12 C6.01 12.33 5.02 12.66 4 13 C0.65701008 11.32850504 0.18881264 8.39660753 -1 5 C-0.6875 2.0625 -0.6875 2.0625 0 0 Z " fill="#17599B" transform="translate(170,304)"/>
<path d="M0 0 C1.36231121 3.67824026 0.49395375 5.48481471 -1 9 C-1 10.32 -1 11.64 -1 13 C2.63 14.32 6.26 15.64 10 17 C10 17.33 10 17.66 10 18 C4.33895411 17.50341703 0.12325529 16.45489316 -5 14 C-3.45730076 9.27934033 -1.92205381 4.58335908 0 0 Z " fill="#1A5491" transform="translate(200,428)"/>
<path d="M0 0 C2.30597813 0.20128673 4.56200287 0.5178138 6.84619141 0.89257812 C7.64347656 1.00601562 8.44076172 1.11945313 9.26220703 1.23632812 C11.23055783 1.51920489 13.19509324 1.82840242 15.15869141 2.14257812 C15.15869141 2.47257812 15.15869141 2.80257813 15.15869141 3.14257812 C8.18289898 4.93847362 2.27647658 5.26325068 -4.84130859 4.14257812 C-3.68213738 1.66337113 -2.858495 0.22134196 0 0 Z " fill="#D4F1FA" transform="translate(246.84130859375,424.857421875)"/>
<path d="M0 0 C0 0.66 0 1.32 0 2 C2.97 2 5.94 2 9 2 C9 2.33 9 2.66 9 3 C6.77149723 3.33774332 4.54216533 3.6700187 2.3125 4 C0.45044922 4.2784375 0.45044922 4.2784375 -1.44921875 4.5625 C-4.35886371 4.92100411 -7.07700022 5.08942256 -10 5 C-9.34 4.67 -8.68 4.34 -8 4 C-8 3.34 -8 2.68 -8 2 C-8.99 1.67 -9.98 1.34 -11 1 C-7.27569643 0.30710631 -3.78916254 -0.11144596 0 0 Z " fill="#CDE1F0" transform="translate(253,70)"/>
<path d="M0 0 C2.03983733 3.53867432 2.79624881 7.08198291 3.625 11.0625 C3.88539063 12.29097656 4.14578125 13.51945312 4.4140625 14.78515625 C5 18 5 18 5 21 C2.03 21.33 -0.94 21.66 -4 22 C-4 21.34 -4 20.68 -4 20 C-0.535 19.505 -0.535 19.505 3 19 C2.52433594 17.72769531 2.52433594 17.72769531 2.0390625 16.4296875 C0.97128768 12.90522775 0.59958921 9.79329043 0.375 6.125 C0.30023438 4.97257812 0.22546875 3.82015625 0.1484375 2.6328125 C0.07496094 1.32957031 0.07496094 1.32957031 0 0 Z " fill="#6D8BB2" transform="translate(302,374)"/>
<path d="M0 0 C0 0.66 0 1.32 0 2 C-1.093125 2.309375 -2.18625 2.61875 -3.3125 2.9375 C-5.55407994 3.58337897 -7.7869351 4.2623117 -10 5 C-11.39439664 5.06665376 -12.79169875 5.08538199 -14.1875 5.0625 C-16.0746875 5.0315625 -16.0746875 5.0315625 -18 5 C-14.99390278 2.99593518 -12.40757305 1.96923742 -9 0.8125 C-7.948125 0.44769531 -6.89625 0.08289063 -5.8125 -0.29296875 C-3 -1 -3 -1 0 0 Z " fill="#1C5A9A" transform="translate(347,420)"/>
<path d="M0 0 C0.33 0.66 0.66 1.32 1 2 C0.0625 4.625 0.0625 4.625 -1 7 C-6.36095277 5.41078475 -11.70843973 3.81027062 -17 2 C-13.32589215 0.82428549 -9.83070817 0.92633254 -6 1 C-5.67 1.99 -5.34 2.98 -5 4 C-1.72226496 3.24849977 -1.72226496 3.24849977 0 0 Z " fill="#239ED0" transform="translate(339,104)"/>
<path d="M0 0 C1.75128818 0.28382946 3.50100003 0.57739529 5.25 0.875 C6.71179688 1.11863281 6.71179688 1.11863281 8.203125 1.3671875 C10.77264117 1.94855848 12.72071056 2.70840265 15 4 C9.78832125 5.84930536 5.95116297 3.84744887 1 2 C0.67 5.3 0.34 8.6 0 12 C-0.66 12 -1.32 12 -2 12 C-1.85904936 10.3745692 -1.71207913 8.74965949 -1.5625 7.125 C-1.48128906 6.22007813 -1.40007812 5.31515625 -1.31640625 4.3828125 C-1 2 -1 2 0 0 Z " fill="#225B93" transform="translate(323,46)"/>
<path d="M0 0 C0 1.98 0 3.96 0 6 C-0.99 6.33 -1.98 6.66 -3 7 C-3.33 7.99 -3.66 8.98 -4 10 C-7 4.25 -7 4.25 -7 2 C-4.35261084 0.5393715 -3.10551666 0 0 0 Z " fill="#159BD2" transform="translate(202,56)"/>
<path d="M0 0 C0.66 0 1.32 0 2 0 C3.14947895 3.55293493 3.0868937 4.79976669 1.5625 8.3125 C0.7890625 9.6428125 0.7890625 9.6428125 0 11 C-1.32 10.67 -2.64 10.34 -4 10 C-3.52449439 8.51965236 -3.04448784 7.04074979 -2.5625 5.5625 C-2.29566406 4.73878906 -2.02882812 3.91507812 -1.75390625 3.06640625 C-1 1 -1 1 0 0 Z " fill="#CCE8F5" transform="translate(221,373)"/>
<path d="M0 0 C0.99 0.33 1.98 0.66 3 1 C2.1875 4.4375 2.1875 4.4375 1 8 C0.01 8.33 -0.98 8.66 -2 9 C-2.33 11.64 -2.66 14.28 -3 17 C-3.66 17 -4.32 17 -5 17 C-3.83348574 11.07136283 -2.24480642 5.61201606 0 0 Z " fill="#2B649B" transform="translate(84,170)"/>
<path d="M0 0 C0.33 0 0.66 0 1 0 C0.4618629 5.69051363 -0.1400133 11.34865884 -1 17 C-1.33 17 -1.66 17 -2 17 C-2.33 15.02 -2.66 13.04 -3 11 C-3.66 11.99 -4.32 12.98 -5 14 C-4.44687265 9.97007218 -3.8441938 5.97977076 -3 2 C-2.34 2.66 -1.68 3.32 -1 4 C-0.67 2.68 -0.34 1.36 0 0 Z " fill="#D1EDF7" transform="translate(313,86)"/>
<path d="M0 0 C1.93166016 0.01740234 1.93166016 0.01740234 3.90234375 0.03515625 C5.19269531 0.04417969 6.48304688 0.05320312 7.8125 0.0625 C8.81152344 0.07410156 9.81054688 0.08570313 10.83984375 0.09765625 C2.94702314 4.33703151 -6.45499631 3.20769338 -15.16015625 3.09765625 C-15.16015625 2.76765625 -15.16015625 2.43765625 -15.16015625 2.09765625 C-14.37769531 2.03707031 -13.59523438 1.97648437 -12.7890625 1.9140625 C-11.77714844 1.83027344 -10.76523437 1.74648438 -9.72265625 1.66015625 C-8.71332031 1.57894531 -7.70398438 1.49773437 -6.6640625 1.4140625 C-3.44264821 1.00698831 -3.47559144 0.10740394 0 0 Z " fill="#2FA1D1" transform="translate(297.16015625,424.90234375)"/>
<path d="M0 0 C-0.99 0.66 -1.98 1.32 -3 2 C-2.67 2.66 -2.34 3.32 -2 4 C-6.455 5.485 -6.455 5.485 -11 7 C-11 6.34 -11 5.68 -11 5 C-11.66 4.34 -12.32 3.68 -13 3 C-11.21189234 2.30329584 -9.41937948 1.61788811 -7.625 0.9375 C-6.62726563 0.55464844 -5.62953125 0.17179687 -4.6015625 -0.22265625 C-2 -1 -2 -1 0 0 Z " fill="#D2E5F3" transform="translate(335,387)"/>
<path d="M0 0 C5.75 3.625 5.75 3.625 8 7 C5.03 9.97 2.06 12.94 -1 16 C-1 12.60406522 -0.47834052 11.93380119 1.5 9.3125 C2.19609375 8.37857422 2.19609375 8.37857422 2.90625 7.42578125 C3.2671875 6.95527344 3.628125 6.48476563 4 6 C3.34 5.38125 2.68 4.7625 2 4.125 C0 2 0 2 0 0 Z " fill="#2C9ECC" transform="translate(424,385)"/>
<path d="M0 0 C0.33 0 0.66 0 1 0 C1.33355299 4.78092614 0.58128543 7.02879164 -2 11 C-2.33 12.010625 -2.66 13.02125 -3 14.0625 C-3.97095208 16.91467174 -5.06981962 18.71887773 -7 21 C-8.41189804 16.76430589 -6.50940347 14.27599933 -4.625 10.5 C-2.07863397 5.34996806 -2.07863397 5.34996806 0 0 Z " fill="#C5F0FA" transform="translate(348,86)"/>
<path d="M0 0 C1.32 0.66 2.64 1.32 4 2 C2.68 5.3 1.36 8.6 0 12 C-0.33 11.01 -0.66 10.02 -1 9 C-1.99 9.33 -2.98 9.66 -4 10 C-2.8905928 6.51329166 -1.73662334 3.22515763 0 0 Z " fill="#C8DDEE" transform="translate(359,62)"/>
<path d="M0 0 C0.33 0 0.66 0 1 0 C1.020625 1.2375 1.04125 2.475 1.0625 3.75 C1.36984203 6.4584516 1.54758015 7.60413263 3.625 9.421875 C5.77001463 10.65614585 5.77001463 10.65614585 9 12 C9 12.66 9 13.32 9 14 C4.94718288 12.77472971 1.55639236 11.30119506 -2 9 C-1.51421457 5.87709365 -1.0013988 3.00419641 0 0 Z " fill="#30A2D0" transform="translate(369,48)"/>
<path d="M0 0 C5.68502535 1.64566523 10.76681636 4.29032784 16 7 C12.01508155 8.32830615 10.59951452 7.23204404 6.8125 5.5625 C5.72582031 5.08941406 4.63914062 4.61632813 3.51953125 4.12890625 C2.68808594 3.75636719 1.85664063 3.38382813 1 3 C0.34 4.32 -0.32 5.64 -1 7 C-1.66 7 -2.32 7 -3 7 C-1.125 1.125 -1.125 1.125 0 0 Z " fill="#2C9ECB" transform="translate(377,32)"/>
<path d="M0 0 C2 2 2 2 3 5 C4.32 4.67 5.64 4.34 7 4 C7 4.66 7 5.32 7 6 C7.99 6.66 8.98 7.32 10 8 C6.19495213 9.79682816 5.29399165 10.07349791 1 9 C0.67 6.03 0.34 3.06 0 0 Z " fill="#6283AF" transform="translate(315,414)"/>
<path d="M0 0 C2 3 2 3 2 8 C-2.62 9.32 -7.24 10.64 -12 12 C-12.66 11.34 -13.32 10.68 -14 10 C-12.4188708 9.49307308 -10.83498617 8.99473557 -9.25 8.5 C-8.36828125 8.2215625 -7.4865625 7.943125 -6.578125 7.65625 C-4 7 -4 7 0 7 C-0.2784375 5.824375 -0.2784375 5.824375 -0.5625 4.625 C-1 2 -1 2 0 0 Z " fill="#225A94" transform="translate(249,125)"/>
<path d="M0 0 C3.3 0.66 6.6 1.32 10 2 C10 2.99 10 3.98 10 5 C5.53160785 5.21278058 2.17737474 4.59138085 -2 3 C-1.34 2.67 -0.68 2.34 0 2 C0 1.34 0 0.68 0 0 Z " fill="#E3FAFE" transform="translate(318,73)"/>
<path d="M0 0 C0.66 0 1.32 0 2 0 C2.33 1.32 2.66 2.64 3 4 C3.66 4 4.32 4 5 4 C4.67 6.31 4.34 8.62 4 11 C3.01 10.67 2.02 10.34 1 10 C-0.1577506 6.52674819 -0.06866652 3.63932552 0 0 Z " fill="#F7FEFD" transform="translate(307,390)"/>
<path d="M0 0 C0 4.07211906 -1.5535064 5.1414603 -4.25 8.125 C-5.43335938 9.45917969 -5.43335938 9.45917969 -6.640625 10.8203125 C-8.90987032 12.9167345 -9.99179674 13.65502256 -13 14 C-8.88380164 9.08064098 -4.59589638 4.47352044 0 0 Z " fill="#DBEEFA" transform="translate(197,161)"/>
<path d="M0 0 C2 2 2 2 2 5 C4.97 4.01 7.94 3.02 11 2 C8.10455408 5.32440087 6.31188509 6.31917604 2 7 C1.34 7.66 0.68 8.32 0 9 C-1.125 6.1875 -1.125 6.1875 -2 3 C-1.34 2.01 -0.68 1.02 0 0 Z " fill="#CFF0F9" transform="translate(203,78)"/>
<path d="M0 0 C0.33 0.99 0.66 1.98 1 3 C3.00016466 4.20882096 3.00016466 4.20882096 5 5 C4.01 5.33 3.02 5.66 2 6 C1.26676204 8.01508358 1.26676204 8.01508358 1 10 C-0.32 9.01 -1.64 8.02 -3 7 C-2.25 2.25 -2.25 2.25 0 0 Z " fill="#1C9DD1" transform="translate(354,148)"/>
<path d="M0 0 C0.9075 0.515625 1.815 1.03125 2.75 1.5625 C5.77789911 3.23876348 5.77789911 3.23876348 8.375 2.6875 C9.179375 2.3471875 9.179375 2.3471875 10 2 C9.67 3.32 9.34 4.64 9 6 C8.01 6 7.02 6 6 6 C5.67 6.99 5.34 7.98 5 9 C5 8.34 5 7.68 5 7 C2.525 6.01 2.525 6.01 0 5 C0.66 4.67 1.32 4.34 2 4 C2 3.34 2 2.68 2 2 C1.34 2 0.68 2 0 2 C0 1.34 0 0.68 0 0 Z " fill="#D2F0F9" transform="translate(394,72)"/>
<path d="M0 0 C2.64 0 5.28 0 8 0 C8.33 0.99 8.66 1.98 9 3 C11.01822917 3.16276042 13.03645833 3.32552083 15.0546875 3.48828125 C17 4 17 4 19 7 C12.51292846 5.3186083 6.2322365 3.46937673 0 1 C0 0.67 0 0.34 0 0 Z " fill="#6888B0" transform="translate(209,414)"/>
<path d="M0 0 C0 0.99 0 1.98 0 3 C-0.99 3.33 -1.98 3.66 -3 4 C-2.53444308 6.17259897 -1.99699212 8.00601576 -1 10 C-0.00300788 11.99398424 0.53444308 13.82740103 1 16 C-4.27272727 10.90909091 -4.27272727 10.90909091 -6 8 C-6 6 -6 6 -5 4 C-2.4375 1.75 -2.4375 1.75 0 0 Z " fill="#2FA0CE" transform="translate(393,390)"/>
<path d="M0 0 C2.31 0 4.62 0 7 0 C7 0.66 7 1.32 7 2 C9.97 2.495 9.97 2.495 13 3 C13 5.64 13 8.28 13 11 C12.34 11 11.68 11 11 11 C11.33 8.69 11.66 6.38 12 4 C11.21753906 3.87882812 10.43507812 3.75765625 9.62890625 3.6328125 C8.61699219 3.46523438 7.60507813 3.29765625 6.5625 3.125 C5.04849609 2.88136719 5.04849609 2.88136719 3.50390625 2.6328125 C2.67761719 2.42398437 1.85132813 2.21515625 1 2 C0.67 1.34 0.34 0.68 0 0 Z " fill="#C1EEFA" transform="translate(239,363)"/>
<path d="M0 0 C1 4 1 4 0 6 C-0.66 6 -1.32 6 -2 6 C-2 6.99 -2 7.98 -2 9 C-1.34 9 -0.68 9 0 9 C-0.33 10.32 -0.66 11.64 -1 13 C-2.65 11.35 -4.3 9.7 -6 8 C-4.02 5.36 -2.04 2.72 0 0 Z " fill="#6888B3" transform="translate(374,120)"/>
<path d="M0 0 C3.63 0 7.26 0 11 0 C11 1.33333333 11 2.66666667 11 4 C7.04 4 3.08 4 -1 4 C0.32 3.34 1.64 2.68 3 2 C2.01 1.34 1.02 0.68 0 0 Z " fill="#CCECF9" transform="translate(265,428)"/>
<path d="M0 0 C5.29441695 -0.50423019 7.81413519 0.81076967 12 4 C8.69564916 5.12377697 6.9493138 4.89554742 3.75 3.5625 C3.04359375 3.27503906 2.3371875 2.98757813 1.609375 2.69140625 C1.07828125 2.46324219 0.5471875 2.23507812 0 2 C0 1.34 0 0.68 0 0 Z " fill="#ECFAFD" transform="translate(224,389)"/>
<path d="M0 0 C2.475 0.99 2.475 0.99 5 2 C5 2.66 5 3.32 5 4 C4.01 4.33 3.02 4.66 2 5 C1.855625 5.598125 1.71125 6.19625 1.5625 6.8125 C0.81048512 9.7370023 -0.79712511 11.01030655 -3 13 C-3.66 12.67 -4.32 12.34 -5 12 C-4.360625 11.505 -3.72125 11.01 -3.0625 10.5 C-0.18484731 7.01193613 -0.29769264 4.46538959 0 0 Z " fill="#C6E3F1" transform="translate(385,344)"/>
<path d="M0 0 C0.66 0 1.32 0 2 0 C2.33 0.66 2.66 1.32 3 2 C3.99 2.66 4.98 3.32 6 4 C4 6 2 8 0 10 C0 9.34 0 8.68 0 8 C-0.99 8.33 -1.98 8.66 -3 9 C-2.5359375 7.88625 -2.5359375 7.88625 -2.0625 6.75 C-1.1905075 4.49307824 -0.52332993 2.3549847 0 0 Z " fill="#CDECF7" transform="translate(403,324)"/>
<path d="M0 0 C-1.09283577 1.03295436 -2.19970579 2.05107835 -3.3125 3.0625 C-3.92738281 3.63097656 -4.54226562 4.19945312 -5.17578125 4.78515625 C-5.77777344 5.18605469 -6.37976563 5.58695313 -7 6 C-7.99 5.67 -8.98 5.34 -10 5 C-9.67 3.68 -9.34 2.36 -9 1 C-2.25 -1.125 -2.25 -1.125 0 0 Z " fill="#0F5196" transform="translate(207,153)"/>
<path d="M0 0 C0.33 0 0.66 0 1 0 C1.33 1.98 1.66 3.96 2 6 C-2.48074195 9.36055646 -5.60550707 9.27429625 -11 9 C-7.86501708 7.14223235 -5.62528568 6.79859524 -2 7 C-2.33 5.35 -2.66 3.7 -3 2 C-2.34 2 -1.68 2 -1 2 C-0.67 1.34 -0.34 0.68 0 0 Z " fill="#CFF3FA" transform="translate(315,418)"/>
<path d="M0 0 C2.91227269 3.28804981 4.49701212 5.59885603 5 10 C2.69 10.66 0.38 11.32 -2 12 C-2 11.34 -2 10.68 -2 10 C-1.01 9.67 -0.02 9.34 1 9 C0.42415568 6.61435923 -0.22227595 4.33317216 -1 2 C-0.67 1.34 -0.34 0.68 0 0 Z " fill="#1A5593" transform="translate(331,376)"/>
<path d="M0 0 C0.75 1.75 0.75 1.75 1 4 C-0.8125 6 -0.8125 6 -3 8 C-3.4640625 9.051875 -3.4640625 9.051875 -3.9375 10.125 C-5.42234691 12.74531808 -7.2056545 13.11757511 -10 14 C-9.61328125 13.49210937 -9.2265625 12.98421875 -8.828125 12.4609375 C-5.74572807 8.38668017 -2.78428845 4.28352069 0 0 Z " fill="#6A88B1" transform="translate(402,335)"/>
<path d="M0 0 C0.33 0 0.66 0 1 0 C0.67 3.96 0.34 7.92 0 12 C-3.3 11.67 -6.6 11.34 -10 11 C-10 10.67 -10 10.34 -10 10 C-7.36 10 -4.72 10 -2 10 C-1.34 6.7 -0.68 3.4 0 0 Z " fill="#2F6397" transform="translate(302,120)"/>
<path d="M0 0 C4.95 0 9.9 0 15 0 C14.67 0.99 14.34 1.98 14 3 C11.8535247 2.88655624 9.70779408 2.75893655 7.5625 2.625 C6.36753906 2.55539062 5.17257812 2.48578125 3.94140625 2.4140625 C2.97074219 2.27742188 2.00007813 2.14078125 1 2 C0.67 1.34 0.34 0.68 0 0 Z " fill="#E2FEFF" transform="translate(261,459)"/>
<path d="M0 0 C-0.33 0.99 -0.66 1.98 -1 3 C-1 2.34 -1 1.68 -1 1 C-1.99 1.33 -2.98 1.66 -4 2 C-3.34 2.66 -2.68 3.32 -2 4 C-4.64 3.67 -7.28 3.34 -10 3 C-10.33 2.01 -10.66 1.02 -11 0 C-7.18243176 -1.37432457 -3.92744671 -0.67975039 0 0 Z " fill="#014994" transform="translate(237,428)"/>
<path d="M0 0 C1 3 1 3 0.29296875 4.8671875 C-0.07183594 5.52976562 -0.43664062 6.19234375 -0.8125 6.875 C-2.40707479 9.86551743 -3.80777286 12.82072763 -5 16 C-5.33 16 -5.66 16 -6 16 C-6.3732988 11.64484728 -5.27682292 9.64291668 -3 6 C-2.65939189 4.33480481 -2.32441604 2.66842534 -2 1 C-1.34 0.67 -0.68 0.34 0 0 Z " fill="#195490" transform="translate(207,401)"/>
<path d="M0 0 C0.66 0 1.32 0 2 0 C2.391875 0.825 2.78375 1.65 3.1875 2.5 C3.785625 3.325 4.38375 4.15 5 5 C8.62599422 5.41725678 8.62599422 5.41725678 12 5 C10.01388388 6.98611612 8.55856751 7.91454712 6 9 C5.01 9 4.02 9 3 9 C2.01 6.03 1.02 3.06 0 0 Z " fill="#2D9FCC" transform="translate(202,74)"/>
<path d="M0 0 C6.14154225 0.58490879 12.00679849 1.54066252 18 3 C18 3.99 18 4.98 18 6 C11.98922864 4.36959185 5.98336072 2.72852643 0 1 C0 0.67 0 0.34 0 0 Z " fill="#31679C" transform="translate(325,74)"/>
<path d="M0 0 C3 1 3 1 4.25 2.75 C5.17574966 5.52724898 4.77341204 7.21571665 4 10 C1.2027092 7.93243723 0.97307727 6.85559629 0.3125 3.3125 C0.209375 2.219375 0.10625 1.12625 0 0 Z " fill="#E4F9FE" transform="translate(198,71)"/>
<path d="M0 0 C0.99 0 1.98 0 3 0 C2.40312566 3.34249629 1.26396123 5.46436342 -1 8 C-1.66 8 -2.32 8 -3 8 C-2.25 2.25 -2.25 2.25 0 0 Z " fill="#E4F7FC" transform="translate(361,132)"/>
<path d="M0 0 C4.75 0.75 4.75 0.75 7 3 C5.88625 3.474375 4.7725 3.94875 3.625 4.4375 C1.73289006 5.25306463 -0.15712709 6.07856355 -2 7 C-1.34 4.69 -0.68 2.38 0 0 Z " fill="#296199" transform="translate(205,417)"/>
<path d="M0 0 C1.18851562 0.00902344 2.37703125 0.01804687 3.6015625 0.02734375 C4.51679688 0.03894531 5.43203125 0.05054688 6.375 0.0625 C6.375 0.3925 6.375 0.7225 6.375 1.0625 C3.735 1.0625 1.095 1.0625 -1.625 1.0625 C-1.625 1.7225 -1.625 2.3825 -1.625 3.0625 C-2.945 2.7325 -4.265 2.4025 -5.625 2.0625 C-5.625 2.7225 -5.625 3.3825 -5.625 4.0625 C-6.615 4.0625 -7.605 4.0625 -8.625 4.0625 C-8.625 3.0725 -8.625 2.0825 -8.625 1.0625 C-5.74084117 -0.37957941 -3.20778472 -0.03144887 0 0 Z " fill="#2DABDD" transform="translate(289.625,9.9375)"/>
<path d="M0 0 C0 0.66 0 1.32 0 2 C-3.46153846 5 -3.46153846 5 -6 5 C-6 5.66 -6 6.32 -6 7 C-7.32 7.33 -8.64 7.66 -10 8 C-10 7.34 -10 6.68 -10 6 C-9.01 6 -8.02 6 -7 6 C-7 5.34 -7 4.68 -7 4 C-7.66 3.67 -8.32 3.34 -9 3 C-3.2 0 -3.2 0 0 0 Z " fill="#1B9AD0" transform="translate(412,409)"/>
<path d="M0 0 C2.39073445 3.82517513 2.55966552 7.59665524 3 12 C2.67 11.34 2.34 10.68 2 10 C1.34 10 0.68 10 0 10 C-0.33 10.66 -0.66 11.32 -1 12 C-1.33 10.02 -1.66 8.04 -2 6 C-1.34 6 -0.68 6 0 6 C0 4.02 0 2.04 0 0 Z " fill="#CEE4F3" transform="translate(307,380)"/>
<path d="M0 0 C0.33 1.32 0.66 2.64 1 4 C0.01 4.66 -0.98 5.32 -2 6 C-2 6.66 -2 7.32 -2 8 C-1.34 8.66 -0.68 9.32 0 10 C-0.99 10 -1.98 10 -3 10 C-3.66 9.34 -4.32 8.68 -5 8 C-4.74739753 4.21096292 -2.72150557 2.45813407 0 0 Z " fill="#2CA1CE" transform="translate(374,322)"/>
<path d="M0 0 C-3.8415976 2.56780471 -7.8139175 2.22688882 -12.25 2.125 C-12.99507812 2.11597656 -13.74015625 2.10695313 -14.5078125 2.09765625 C-16.33868059 2.07418358 -18.16938238 2.03831525 -20 2 C-20 1.67 -20 1.34 -20 1 C-17.79355164 0.63427363 -15.58471965 0.28291166 -13.375 -0.0625 C-11.53035156 -0.35833984 -11.53035156 -0.35833984 -9.6484375 -0.66015625 C-6.15426941 -0.98563015 -3.40955765 -0.75010268 0 0 Z " fill="#185695" transform="translate(268,73)"/>
<path d="M0 0 C2 3 2 3 2 5 C2.7425 4.67 3.485 4.34 4.25 4 C7 3 7 3 11 3 C11 3.66 11 4.32 11 5 C7.37 5.66 3.74 6.32 0 7 C0 4.69 0 2.38 0 0 Z " fill="#19528D" transform="translate(323,447)"/>
<path d="M0 0 C0.99 0.33 1.98 0.66 3 1 C4.09765625 3.21484375 4.09765625 3.21484375 5.0625 5.9375 C6.42832255 9.83779411 6.42832255 9.83779411 9 13 C8.01 13.33 7.02 13.66 6 14 C4.99515796 12.04414675 3.99626195 10.08523763 3 8.125 C2.1646875 6.48917969 2.1646875 6.48917969 1.3125 4.8203125 C0 2 0 2 0 0 Z " fill="#2E9FCD" transform="translate(346,398)"/>
<path d="M0 0 C0.33 1.32 0.66 2.64 1 4 C0.01 4.495 0.01 4.495 -1 5 C-0.34 6.65 0.32 8.3 1 10 C0.608125 9.505 0.21625 9.01 -0.1875 8.5 C-2.55091715 6.54406857 -4.01435003 6.75792027 -7 7 C-4.66666667 4.66666667 -2.33333333 2.33333333 0 0 Z " fill="#165494" transform="translate(358,339)"/>
<path d="M0 0 C2.9375 1.25 2.9375 1.25 6 3 C6.875 5.1875 6.875 5.1875 7 7 C5.68 7.99 4.36 8.98 3 10 C3.33 8.02 3.66 6.04 4 4 C2.68 3.34 1.36 2.68 0 2 C0 1.34 0 0.68 0 0 Z " fill="#5D7CA8" transform="translate(355,125)"/>
<path d="M0 0 C1.07033136 3.21822604 0.95795392 5.03142433 -0.25 8.1875 C-0.62898438 9.22970703 -0.62898438 9.22970703 -1.015625 10.29296875 C-2 12 -2 12 -5 13 C-4.54554036 11.58208592 -4.08625056 10.16571954 -3.625 8.75 C-3.24214844 7.56664063 -3.24214844 7.56664063 -2.8515625 6.359375 C-2.04826333 4.13372042 -1.10288338 2.09068328 0 0 Z " fill="#718FB5" transform="translate(338,118)"/>
<path d="M0 0 C2.475 0.99 2.475 0.99 5 2 C5 3.32 5 4.64 5 6 C1.7 5.01 -1.6 4.02 -5 3 C-3.68 2.67 -2.36 2.34 -1 2 C-0.67 1.34 -0.34 0.68 0 0 Z " fill="#C8EFFA" transform="translate(343,80)"/>
<path d="M0 0 C-0.33 0.99 -0.66 1.98 -1 3 C-4.96 3 -8.92 3 -13 3 C-12.67 2.34 -12.34 1.68 -12 1 C-8.01624339 -0.17169312 -4.12560776 -0.08089427 0 0 Z " fill="#6987AE" transform="translate(321,459)"/>
<path d="M0 0 C-1.70625501 2.78388975 -2.47626739 3.85384206 -5.6875 4.75 C-6.8321875 4.87375 -6.8321875 4.87375 -8 5 C-8 3.68 -8 2.36 -8 1 C-3.375 -1.125 -3.375 -1.125 0 0 Z " fill="#D8E8F3" transform="translate(328,422)"/>
<path d="M0 0 C1.98 0 3.96 0 6 0 C5.67 0.66 5.34 1.32 5 2 C5.66 2.66 6.32 3.32 7 4 C5.56163249 3.88541307 4.12429034 3.75790884 2.6875 3.625 C1.88699219 3.55539062 1.08648437 3.48578125 0.26171875 3.4140625 C-2 3 -2 3 -5 1 C-3.35 1 -1.7 1 0 1 C0 0.67 0 0.34 0 0 Z " fill="#D1E6F4" transform="translate(231,423)"/>
<path d="M0 0 C0.33 0 0.66 0 1 0 C1.33 1.98 1.66 3.96 2 6 C1.01 6 0.02 6 -1 6 C-1.33 6.66 -1.66 7.32 -2 8 C-2.66 8 -3.32 8 -4 8 C-3.67 6.35 -3.34 4.7 -3 3 C-2.34 3 -1.68 3 -1 3 C-0.67 2.01 -0.34 1.02 0 0 Z " fill="#F1FBFE" transform="translate(206,411)"/>
<path d="M0 0 C4.455 0.99 4.455 0.99 9 2 C9 2.33 9 2.66 9 3 C7.35 3 5.7 3 4 3 C4 3.66 4 4.32 4 5 C1.525 4.01 1.525 4.01 -1 3 C-0.67 2.01 -0.34 1.02 0 0 Z " fill="#CEEDF8" transform="translate(220,386)"/>
<path d="M0 0 C3.99455527 0.61454696 6.74466336 2.70646737 10 5 C9.01 5.33 8.02 5.66 7 6 C6.01 5.34 5.02 4.68 4 4 C1.37468476 3.83286431 1.37468476 3.83286431 -1 4 C-0.67 2.68 -0.34 1.36 0 0 Z " fill="#299CCB" transform="translate(380,312)"/>
<path d="M0 0 C2.6597889 1.32989445 2.9835728 2.68898191 4.1875 5.375 C4.55230469 6.16648437 4.91710937 6.95796875 5.29296875 7.7734375 C6 10 6 10 5 13 C3.5393715 10.35261084 3 9.10551666 3 6 C2.01 6 1.02 6 0 6 C0 4.02 0 2.04 0 0 Z " fill="#205B97" transform="translate(163,289)"/>
<path d="M0 0 C0.66 0.33 1.32 0.66 2 1 C1.4375 3.375 1.4375 3.375 0 6 C-3.625 7.3125 -3.625 7.3125 -7 8 C-6.02133662 6.85373678 -5.04205413 5.70800212 -4.0625 4.5625 C-3.51722656 3.92441406 -2.97195312 3.28632812 -2.41015625 2.62890625 C-1.63204305 1.73008851 -0.84063472 0.84063472 0 0 Z " fill="#265F9B" transform="translate(139,93)"/>
<path d="M0 0 C0.66 1.32 1.32 2.64 2 4 C-0.31 5.98 -2.62 7.96 -5 10 C-5.66 9.67 -6.32 9.34 -7 9 C-4.69 6.03 -2.38 3.06 0 0 Z " fill="#E0ECF7" transform="translate(393,88)"/>
<path d="M0 0 C3.96 0 7.92 0 12 0 C12 1.32 12 2.64 12 4 C9.69 4 7.38 4 5 4 C6.32 3.34 7.64 2.68 9 2 C6.03 1.67 3.06 1.34 0 1 C0 0.67 0 0.34 0 0 Z " fill="#CBDEF1" transform="translate(264,68)"/>
<path d="M0 0 C0.66 0.33 1.32 0.66 2 1 C1.01 3.31 0.02 5.62 -1 8 C-2.65 7.67 -4.3 7.34 -6 7 C-5.01 6.34 -4.02 5.68 -3 5 C-3 4.01 -3 3.02 -3 2 C-2.01 2 -1.02 2 0 2 C0 1.34 0 0.68 0 0 Z " fill="#265F9A" transform="translate(193,432)"/>
<path d="M0 0 C0.66 0 1.32 0 2 0 C2 1.65 2 3.3 2 5 C0.25 5.75 0.25 5.75 -2 6 C-4.25 4.0625 -4.25 4.0625 -6 2 C-4.33333333 2 -2.66666667 2 -1 2 C-0.67 1.34 -0.34 0.68 0 0 Z " fill="#1D9DD2" transform="translate(389,340)"/>
<path d="M0 0 C1.65 0 3.3 0 5 0 C3.35 1.98 1.7 3.96 0 6 C-0.99 5.67 -1.98 5.34 -3 5 C-2.67 4.01 -2.34 3.02 -2 2 C-1.34 2 -0.68 2 0 2 C0 1.34 0 0.68 0 0 Z " fill="#249DCD" transform="translate(367,162)"/>
<path d="M0 0 C0.66 0.66 1.32 1.32 2 2 C1.6730244 4.61580479 1.17960932 6.64078137 0 9 C-0.99 9 -1.98 9 -3 9 C-2.01 6.03 -1.02 3.06 0 0 Z " fill="#195895" transform="translate(90,157)"/>
<path d="M0 0 C0.99 0.99 1.98 1.98 3 3 C1.63016497 6.16115776 1.0109362 6.9927092 -2 9 C-2 7.35 -2 5.7 -2 4 C-1.34 4 -0.68 4 0 4 C0 2.68 0 1.36 0 0 Z " fill="#1A9AD0" transform="translate(382,146)"/>
<path d="M0 0 C6.0546875 -0.1953125 6.0546875 -0.1953125 8 0 C8.66 0.66 9.32 1.32 10 2 C6.7 2.33 3.4 2.66 0 3 C0 2.01 0 1.02 0 0 Z " fill="#0B99D7" transform="translate(288,11)"/>
<path d="M0 0 C0.763125 0.0825 1.52625 0.165 2.3125 0.25 C1.9825 1.24 1.6525 2.23 1.3125 3.25 C-0.9975 3.58 -3.3075 3.91 -5.6875 4.25 C-3.34903846 0.31153846 -3.34903846 0.31153846 0 0 Z " fill="#EDFBFE" transform="translate(330.6875,420.75)"/>
<path d="M0 0 C0 0.99 0 1.98 0 3 C-1.65 3.33 -3.3 3.66 -5 4 C-5 3.34 -5 2.68 -5 2 C-6.32 1.67 -7.64 1.34 -9 1 C-5.8035914 -0.06546953 -3.34252724 -0.07427838 0 0 Z " fill="#DAEAF6" transform="translate(338,419)"/>
<path d="M0 0 C0.99 0.33 1.98 0.66 3 1 C3 1.66 3 2.32 3 3 C0.25 4.625 0.25 4.625 -3 6 C-5.375 5.1875 -5.375 5.1875 -7 4 C-5.35 4 -3.7 4 -2 4 C-1.34 2.68 -0.68 1.36 0 0 Z " fill="#5C7EAA" transform="translate(345,411)"/>
<path d="M0 0 C3.37357234 2.21027154 5.08864614 4.46399535 7 8 C6.01 8 5.02 8 4 8 C0 3.77142857 0 3.77142857 0 0 Z " fill="#1D5996" transform="translate(113,376)"/>
<path d="M0 0 C0.99 0.33 1.98 0.66 3 1 C1.47005208 2.23697917 -0.05989583 3.47395833 -1.58984375 4.7109375 C-3.13266437 5.9666391 -3.13266437 5.9666391 -4 8 C-4.66 8 -5.32 8 -6 8 C-5.67 6.68 -5.34 5.36 -5 4 C-4.0409375 3.8453125 -4.0409375 3.8453125 -3.0625 3.6875 C-2.381875 3.460625 -1.70125 3.23375 -1 3 C-0.67 2.01 -0.34 1.02 0 0 Z " fill="#D5E9F5" transform="translate(355,339)"/>
<path d="M0 0 C0.99 0.99 1.98 1.98 3 3 C1.71034824 4.37562854 0.37310707 5.70766393 -1 7 C-1.66 7 -2.32 7 -3 7 C-2.67 5.35 -2.34 3.7 -2 2 C-1.34 2 -0.68 2 0 2 C0 1.34 0 0.68 0 0 Z " fill="#6586AE" transform="translate(406,127)"/>
<path d="M0 0 C1.31611677 0.95336021 2.62778961 1.91285774 3.9375 2.875 C4.66839844 3.40867187 5.39929688 3.94234375 6.15234375 4.4921875 C8 6 8 6 9 8 C6.83125748 7.49396008 5.00032373 7.00016187 3 6 C3 5.34 3 4.68 3 4 C2.01 3.67 1.02 3.34 0 3 C0 2.01 0 1.02 0 0 Z " fill="#5E81AA" transform="translate(389,111)"/>
<path d="M0 0 C0.33 1.32 0.66 2.64 1 4 C-0.1875 5.8125 -0.1875 5.8125 -2 7 C-3.32 6.67 -4.64 6.34 -6 6 C-4.02 4.02 -2.04 2.04 0 0 Z " fill="#1B5998" transform="translate(131,101)"/>
<path d="M0 0 C0.763125 0.0825 1.52625 0.165 2.3125 0.25 C1.9825 1.24 1.6525 2.23 1.3125 3.25 C-0.9975 3.58 -3.3075 3.91 -5.6875 4.25 C-3.34903846 0.31153846 -3.34903846 0.31153846 0 0 Z " fill="#F0F9FD" transform="translate(322.6875,390.75)"/>
<path d="M0 0 C0.94875 0.04125 1.8975 0.0825 2.875 0.125 C2.545 1.115 2.215 2.105 1.875 3.125 C-0.105 3.455 -2.085 3.785 -4.125 4.125 C-4.455 3.465 -4.785 2.805 -5.125 2.125 C-3.125 0.125 -3.125 0.125 0 0 Z " fill="#1FA0D1" transform="translate(219.125,74.875)"/>
<path d="M0 0 C2.64 0.33 5.28 0.66 8 1 C4.46588679 3.12046792 1.05606165 3.53199289 -3 4 C-2.01 2.68 -1.02 1.36 0 0 Z " fill="#C7E5F4" transform="translate(245,425)"/>
<path d="M0 0 C0.66 2.31 1.32 4.62 2 7 C1.01 7.495 1.01 7.495 0 8 C-0.268125 7.21625 -0.53625 6.4325 -0.8125 5.625 C-1.84814432 2.71885077 -1.84814432 2.71885077 -5 1 C-3 0 -3 0 0 0 Z " fill="#336A9E" transform="translate(351,417)"/>
<path d="M0 0 C0.99 0.33 1.98 0.66 3 1 C2.67 2.98 2.34 4.96 2 7 C1.01 7 0.02 7 -1 7 C-0.67 4.69 -0.34 2.38 0 0 Z " fill="#E1F1FA" transform="translate(201,417)"/>
<path d="M0 0 C1.3609623 2.7219246 0.70366248 4.1831957 0.0625 7.125 C-0.13214844 8.03507812 -0.32679688 8.94515625 -0.52734375 9.8828125 C-0.68332031 10.58148438 -0.83929688 11.28015625 -1 12 C-1.66 12 -2.32 12 -3 12 C-3.43200679 7.24792529 -1.98489083 4.21789302 0 0 Z " fill="#6788B0" transform="translate(242,406)"/>
<path d="M0 0 C0.66 0 1.32 0 2 0 C2 0.66 2 1.32 2 2 C3.65 2 5.3 2 7 2 C6.01 2.33 5.02 2.66 4 3 C3.67 4.65 3.34 6.3 3 8 C1.5 6.8125 1.5 6.8125 0 5 C-0.1875 2.3125 -0.1875 2.3125 0 0 Z " fill="#CBEBF6" transform="translate(226,358)"/>
<path d="M0 0 C0.66 0 1.32 0 2 0 C1.67 2.64 1.34 5.28 1 8 C0.34 8 -0.32 8 -1 8 C-1.33 8.66 -1.66 9.32 -2 10 C-1.34 6.7 -0.68 3.4 0 0 Z " fill="#31679E" transform="translate(77,190)"/>
<path d="M0 0 C0.99 0.33 1.98 0.66 3 1 C2.34 3.31 1.68 5.62 1 8 C0.34 7.67 -0.32 7.34 -1 7 C-0.67 4.69 -0.34 2.38 0 0 Z " fill="#1E5B9A" transform="translate(84,170)"/>
<path d="M0 0 C1.32 0 2.64 0 4 0 C2.63016497 3.16115776 2.0109362 3.9927092 -1 6 C-1.625 4.125 -1.625 4.125 -2 2 C-1.34 1.34 -0.68 0.68 0 0 Z " fill="#6386B1" transform="translate(395,137)"/>
<path d="M0 0 C0.66 1.32 1.32 2.64 2 4 C0.625 6 0.625 6 -1 8 C-1.66 8 -2.32 8 -3 8 C-1.125 1.125 -1.125 1.125 0 0 Z " fill="#6086B2" transform="translate(217,391)"/>
<path d="M0 0 C0.6875 2.0625 0.6875 2.0625 1 4 C0.01 3.67 -0.98 3.34 -2 3 C-2 2.34 -2 1.68 -2 1 C-3.98 1.33 -5.96 1.66 -8 2 C-5.14066998 -0.85933002 -3.8625627 -1.2875209 0 0 Z " fill="#6A89B2" transform="translate(339,390)"/>
<path d="M0 0 C0.33 0 0.66 0 1 0 C1.33 1.98 1.66 3.96 2 6 C-0.31 6.33 -2.62 6.66 -5 7 C-4.0409375 6.1028125 -4.0409375 6.1028125 -3.0625 5.1875 C-0.79689611 3.09189663 -0.79689611 3.09189663 0 0 Z " fill="#F0FAFE" transform="translate(336,383)"/>
<path d="M0 0 C0.66 1.98 1.32 3.96 2 6 C1.34 6 0.68 6 0 6 C0 5.01 0 4.02 0 3 C-1.65 3 -3.3 3 -5 3 C-5.33 2.34 -5.66 1.68 -6 1 C-4 0 -4 0 0 0 Z " fill="#306299" transform="translate(326,361)"/>
<path d="M0 0 C2.83374881 3.20336822 3.5205537 5.78087253 4 10 C3.34 10 2.68 10 2 10 C0.68373308 6.38026598 0 3.90432869 0 0 Z " fill="#31659A" transform="translate(223,132)"/>
<path d="M0 0 C1 3 1 3 -0.3125 6.125 C-2 9 -2 9 -4 10 C-4 5.28093812 -2.71245796 3.72962969 0 0 Z " fill="#6286B3" transform="translate(380,112)"/>
<path d="M0 0 C-0.33 1.65 -0.66 3.3 -1 5 C-3.46800047 3.84826645 -5.04783565 2.95216435 -7 1 C-2.25 0 -2.25 0 0 0 Z " fill="#6D8AB1" transform="translate(385,97)"/>
<path d="M0 0 C0 1.65 0 3.3 0 5 C-2.76264289 5.59732819 -5.16032769 6 -8 6 C-6.85675161 4.9970458 -5.71032809 3.99770973 -4.5625 3 C-3.92441406 2.443125 -3.28632813 1.88625 -2.62890625 1.3125 C-1 0 -1 0 0 0 Z " fill="#245D9A" transform="translate(151,84)"/>
<path d="M0 0 C3.10551666 0 4.35261084 0.5393715 7 2 C3.25 5 3.25 5 1 5 C0.67 3.35 0.34 1.7 0 0 Z " fill="#205993" transform="translate(364,363)"/>
<path d="M0 0 C0.99 0.33 1.98 0.66 3 1 C1.92598892 3.91517292 1.22189824 5.77810176 -1 8 C-1.93065133 5.39417629 -2.14917407 4.35801776 -1.0625 1.75 C-0.711875 1.1725 -0.36125 0.595 0 0 Z " fill="#6284AF" transform="translate(428,339)"/>
<path d="M0 0 C-1.29299694 2.88437779 -2.65941363 4.87219421 -5 7 C-5 5.02 -5 3.04 -5 1 C-2 0 -2 0 0 0 Z " fill="#5B7FAE" transform="translate(391,90)"/>
<path d="M0 0 C1.32 0.66 2.64 1.32 4 2 C3.34 3.65 2.68 5.3 2 7 C1.01 6.67 0.02 6.34 -1 6 C-0.67 4.02 -0.34 2.04 0 0 Z " fill="#E0EDF7" transform="translate(359,62)"/>
<path d="M0 0 C1.32 0 2.64 0 4 0 C3.67 1.65 3.34 3.3 3 5 C1.68 4.67 0.36 4.34 -1 4 C-0.67 2.68 -0.34 1.36 0 0 Z " fill="#D0E5F2" transform="translate(196,428)"/>
<path d="M0 0 C1.32 0.66 2.64 1.32 4 2 C3.67 2.99 3.34 3.98 3 5 C1.02 4.34 -0.96 3.68 -3 3 C-2.01 2.67 -1.02 2.34 0 2 C0 1.34 0 0.68 0 0 Z " fill="#D5E9F5" transform="translate(219,418)"/>
<path d="M0 0 C0 0.66 0 1.32 0 2 C-1.65 2.66 -3.3 3.32 -5 4 C-5.33 2.68 -5.66 1.36 -6 0 C-3.50907189 -1.24546405 -2.58919267 -0.7767578 0 0 Z " fill="#13549A" transform="translate(216,146)"/>
<path d="M0 0 C0.33 0.99 0.66 1.98 1 3 C1.66 3.33 2.32 3.66 3 4 C2.01 4.99 1.02 5.98 0 7 C-0.33 6.34 -0.66 5.68 -1 5 C-1.99 5.495 -1.99 5.495 -3 6 C-1.125 1.125 -1.125 1.125 0 0 Z " fill="#CDE7F5" transform="translate(357,137)"/>
<path d="M0 0 C0.66 0.33 1.32 0.66 2 1 C-0.40436026 4.60654039 -1.94679607 4.85452932 -6 6 C-4.98545548 3.4636387 -4.3146444 2.20648539 -2 0.6875 C-1.34 0.460625 -0.68 0.23375 0 0 Z " fill="#064A93" transform="translate(146,89)"/>
<path d="M0 0 C2.475 0.99 2.475 0.99 5 2 C4.67 2.66 4.34 3.32 4 4 C1.36 4 -1.28 4 -4 4 C-2.68 2.68 -1.36 1.36 0 0 Z " fill="#195899" transform="translate(164,74)"/>
</svg>
